<svg xmlns="http://www.w3.org/2000/svg" xmlns:xlink="http://www.w3.org/1999/xlink" width="280" height="340" fill="none"><g filter="url(#A)"><rect x="10" y="10" width="260" height="320" rx="10" fill="#fff"/></g><g fill="#9e9e9e"><circle cx="230" cy="289" r="25"/><path d="M214 273h32v32h-32z"/><path d="M239.92 276.36h-19.84a3.21 3.21 0 0 0-3.2 3.2V293a3.21 3.21 0 0 0 3.2 3.2h2.56v5.44l8-5.44h9.28a3.21 3.21 0 0 0 3.2-3.2v-13.44a3.21 3.21 0 0 0-3.2-3.2zm-16.064 6.4h6.528a.94.94 0 1 1 0 1.92h-6.528c-.512 0-.96-.416-.96-.96 0-.512.416-.96.96-.96zm11.648 6.4h-11.648c-.512 0-.96-.416-.96-.96 0-.512.416-.96.96-.96h11.648a.94.94 0 1 1 0 1.92z"/></g><g fill="#d9d9d9"><circle cx="230" cy="230" r="20"/><path d="M238.405 221.487a11.8 11.8 0 0 0-8.41-3.487 11.91 11.91 0 0 0-11.893 11.893c0 2.095.546 4.141 1.586 5.946L218 242l6.305-1.655a11.86 11.86 0 0 0 5.684 1.446h.006c6.551 0 12.005-5.336 12.005-11.893 0-3.177-1.35-6.16-3.595-8.411zm-8.41 18.301c-1.779 0-3.52-.477-5.036-1.377l-.359-.215-3.739.981.996-3.648-.236-.375c-.991-1.575-1.51-3.392-1.51-5.261a9.9 9.9 0 0 1 9.889-9.884c2.641 0 5.121 1.028 6.986 2.898s3.01 4.35 3.005 6.991c0 5.454-4.548 9.89-9.996 9.89zm5.421-7.404c-.295-.15-1.757-.868-2.03-.964-.273-.102-.472-.15-.67.15s-.766.964-.943 1.168c-.171.198-.348.225-.643.074-1.746-.873-2.892-1.558-4.044-3.535-.306-.525.305-.488.873-1.623.096-.199.048-.37-.027-.52s-.67-1.613-.916-2.207c-.241-.579-.487-.498-.67-.509-.171-.011-.369-.011-.567-.011s-.52.075-.793.37c-.274.3-1.04 1.018-1.04 2.48s1.067 2.877 1.211 3.075c.15.198 2.095 3.198 5.079 4.489 1.885.815 2.625.884 3.568.745.573-.086 1.757-.718 2.003-1.414s.247-1.291.172-1.414c-.07-.134-.268-.209-.563-.354z"/><circle cx="174" cy="292" r="20"/><use xlink:href="#B"/><circle cx="188" cy="247" r="20"/><path d="M195.846 238.181c-.556-.512-2.804-2.143-7.818-2.165 0 0-5.909-.354-8.788 2.288-1.601 1.601-2.165 3.95-2.226 6.859s-.136 8.359 5.118 9.838h.004l-.004 2.257s-.035.914.568 1.098c.727.228 1.155-.468 1.851-1.216l1.303-1.474c3.596.302 6.356-.389 6.671-.49.727-.236 4.834-.761 5.499-6.212.691-5.625-.332-9.177-2.178-10.783zm.608 10.372c-.565 4.549-3.894 4.838-4.506 5.035-.263.083-2.69.687-5.739.49 0 0-2.275 2.743-2.984 3.456-.232.232-.485.21-.481-.25l.018-3.748c-4.454-1.234-4.191-5.875-4.143-8.303s.507-4.418 1.864-5.757c2.436-2.209 7.454-1.881 7.454-1.881 4.238.018 6.268 1.295 6.741 1.724 1.561 1.338 2.357 4.54 1.776 9.234zm-6.081-3.535c.018.377-.547.403-.564.027-.048-.963-.499-1.431-1.426-1.483-.376-.022-.341-.586.03-.565 1.221.066 1.899.766 1.96 2.021zm.888.495c.044-1.855-1.115-3.307-3.316-3.469-.371-.026-.332-.591.04-.564 2.537.183 3.889 1.929 3.84 4.046-.004.376-.573.359-.564-.013zm2.056.586c.005.376-.564.381-.564.004-.026-3.565-2.402-5.507-5.284-5.529-.372-.004-.372-.564 0-.564 3.223.022 5.818 2.248 5.848 6.089zm-.494 4.291v.009c-.473.831-1.356 1.75-2.266 1.457l-.009-.013c-.923-.258-3.097-1.378-4.471-2.472-.708-.56-1.356-1.22-1.854-1.855-.451-.564-.906-1.233-1.348-2.038-.931-1.684-1.137-2.437-1.137-2.437-.293-.91.621-1.793 1.457-2.266h.008c.403-.21.788-.14 1.046.171 0 0 .542.647.774.967.219.297.512.774.665 1.041.267.477.101.962-.162 1.163l-.525.42c-.267.215-.232.613-.232.613s.779 2.944 3.688 3.687c0 0 .398.035.613-.231l.42-.525c.201-.263.686-.429 1.163-.162.643.363 1.461.927 2.004 1.439.306.249.376.63.166 1.032z"/><circle cx="230" cy="179" r="20"/><path d="M238.405 170.487a11.8 11.8 0 0 0-8.41-3.487 11.91 11.91 0 0 0-11.893 11.893c0 2.095.546 4.141 1.586 5.946L218 191l6.305-1.655a11.86 11.86 0 0 0 5.684 1.446h.006c6.551 0 12.005-5.336 12.005-11.893 0-3.177-1.35-6.16-3.595-8.411zm-8.41 18.301c-1.779 0-3.52-.477-5.036-1.377l-.359-.215-3.739.981.996-3.648-.236-.375c-.991-1.575-1.51-3.392-1.51-5.261a9.9 9.9 0 0 1 9.889-9.884c2.641 0 5.121 1.028 6.986 2.898s3.01 4.35 3.005 6.991c0 5.454-4.548 9.89-9.996 9.89zm5.421-7.404c-.295-.15-1.757-.868-2.03-.964-.273-.102-.472-.15-.67.15s-.766.964-.943 1.168c-.171.198-.348.225-.643.074-1.746-.873-2.892-1.558-4.044-3.535-.306-.525.305-.488.873-1.623.096-.199.048-.37-.027-.52s-.67-1.613-.916-2.207c-.241-.579-.487-.498-.67-.509-.171-.011-.369-.011-.567-.011s-.52.075-.793.37c-.274.3-1.04 1.018-1.04 2.48s1.067 2.877 1.211 3.075c.15.198 2.095 3.198 5.079 4.489 1.885.815 2.625.884 3.568.745.573-.086 1.757-.718 2.003-1.414s.247-1.291.172-1.414c-.07-.134-.268-.209-.563-.354z"/><circle cx="178" cy="196" r="20"/><path d="M186.405 187.487a11.8 11.8 0 0 0-8.41-3.487 11.91 11.91 0 0 0-11.893 11.893c0 2.095.546 4.141 1.586 5.946L166 208l6.305-1.655a11.86 11.86 0 0 0 5.684 1.446h.006c6.551 0 12.005-5.336 12.005-11.893 0-3.177-1.35-6.16-3.595-8.411zm-8.41 18.301c-1.779 0-3.52-.477-5.036-1.377l-.359-.215-3.739.981.996-3.648-.236-.375c-.991-1.575-1.51-3.392-1.51-5.261a9.9 9.9 0 0 1 9.889-9.884c2.641 0 5.121 1.028 6.986 2.898s3.01 4.35 3.005 6.991c0 5.454-4.548 9.89-9.996 9.89zm5.421-7.404c-.295-.15-1.757-.868-2.03-.964-.273-.102-.472-.15-.67.15s-.766.964-.943 1.168c-.171.198-.348.225-.643.074-1.746-.873-2.892-1.558-4.044-3.535-.306-.525.305-.488.873-1.623.096-.199.048-.37-.027-.52s-.67-1.613-.916-2.207c-.241-.579-.487-.498-.67-.509-.171-.011-.369-.011-.567-.011s-.52.075-.793.37c-.274.3-1.04 1.018-1.04 2.48s1.067 2.877 1.211 3.075c.15.198 2.095 3.198 5.079 4.489 1.885.815 2.625.884 3.568.745.573-.086 1.757-.718 2.003-1.414s.247-1.291.172-1.414c-.07-.134-.268-.209-.563-.354z"/><circle cx="140" cy="236" r="20"/><path d="M140.225 225c-6.324 0-11.225 4.622-11.225 10.865 0 3.265 1.342 6.087 3.526 8.036.377.34.299.536.363 2.63a.9.9 0 0 0 .12.417.89.89 0 0 0 .712.449.9.9 0 0 0 .428-.072c2.389-1.052 2.42-1.136 2.825-1.025 6.923 1.905 14.427-2.525 14.427-10.435 0-6.243-4.851-10.865-11.176-10.865zm6.741 8.361l-3.297 5.22c-.125.196-.289.364-.481.494a1.67 1.67 0 0 1-1.329.245 1.69 1.69 0 0 1-.625-.291l-2.623-1.963a.68.68 0 0 0-.407-.136c-.146 0-.289.048-.406.136l-3.54 2.684c-.472.359-1.091-.207-.772-.707l3.297-5.22a1.69 1.69 0 0 1 1.119-.756 1.69 1.69 0 0 1 .69.017c.226.052.439.152.625.291l2.623 1.962c.117.088.259.136.406.136a.68.68 0 0 0 .407-.136l3.541-2.681c.471-.361 1.09.205.772.705z"/><circle cx="125" cy="292" r="20"/><use xlink:href="#B" x="-49"/></g><defs><filter id="A" x="0" y="0" width="280" height="340" filterUnits="userSpaceOnUse" color-interpolation-filters="sRGB"><feFlood flood-opacity="0" result="A"/><feColorMatrix in="SourceAlpha" values="0 0 0 0 0 0 0 0 0 0 0 0 0 0 0 0 0 0 127 0" result="B"/><feOffset/><feGaussianBlur stdDeviation="5"/><feComposite in2="B" operator="out"/><feColorMatrix values="0 0 0 0 0 0 0 0 0 0 0 0 0 0 0 0 0 0 0.25 0"/><feBlend in2="A"/><feBlend in="SourceGraphic"/></filter><path id="B" d="M174.225 281c-6.324 0-11.225 4.622-11.225 10.865 0 3.265 1.342 6.087 3.526 8.036.377.34.299.536.363 2.63a.9.9 0 0 0 .12.417.89.89 0 0 0 .712.449.9.9 0 0 0 .428-.072c2.389-1.052 2.42-1.136 2.825-1.025 6.923 1.905 14.427-2.525 14.427-10.435 0-6.243-4.851-10.865-11.176-10.865zm6.741 8.361l-3.297 5.22c-.125.196-.289.364-.481.494a1.67 1.67 0 0 1-1.329.245 1.69 1.69 0 0 1-.625-.291l-2.623-1.963a.68.68 0 0 0-.407-.136c-.146 0-.289.048-.406.136l-3.54 2.684c-.472.359-1.091-.207-.772-.707l3.297-5.22a1.69 1.69 0 0 1 1.119-.756 1.69 1.69 0 0 1 .69.017c.226.052.439.152.625.291l2.623 1.963a.68.68 0 0 0 .406.135c.147 0 .289-.048.407-.135l3.541-2.682c.471-.361 1.09.205.772.705z"/></defs></svg>