<svg xmlns="http://www.w3.org/2000/svg" width="282" height="342" fill="none"><g filter="url(#A)"><rect x="11" y="11" width="260" height="320" rx="10" fill="#fff"/><rect x="11" y="11" width="260" height="320" rx="10" fill="url(#B)" fill-opacity=".2"/><rect x="10.5" y="10.5" width="261" height="321" rx="10.5" stroke="#4f46e5"/></g><circle cx="231" cy="290" r="25" fill="#4f46e5"/><path d="M233.352 290.004l7.16-7.16c.312-.312.488-.736.488-1.178s-.176-.866-.488-1.178-.736-.488-1.178-.488-.866.176-1.178.488l-7.16 7.16-7.16-7.135c-.319-.273-.728-.415-1.148-.399s-.816.19-1.113.486-.47.694-.486 1.113.126.829.399 1.148l7.143 7.16-7.143 7.16c-.312.312-.488.736-.488 1.178s.176.866.488 1.178.736.488 1.178.488.866-.176 1.178-.488l7.144-7.16 7.16 7.16c.312.312.736.488 1.178.488a1.67 1.67 0 0 0 1.178-.488c.312-.312.488-.736.488-1.178s-.176-.866-.488-1.178l-7.152-7.177z" fill="#fff"/><circle cx="231" cy="232" r="20" fill="#4dc247"/><path d="M239.405 223.487a11.8 11.8 0 0 0-8.41-3.487 11.91 11.91 0 0 0-11.893 11.893c0 2.095.546 4.141 1.586 5.946L219 244l6.305-1.655a11.86 11.86 0 0 0 5.684 1.446h.006c6.551 0 12.005-5.336 12.005-11.893 0-3.177-1.35-6.16-3.595-8.411zm-8.41 18.301c-1.779 0-3.52-.477-5.036-1.377l-.359-.215-3.739.981.996-3.648-.236-.375c-.991-1.575-1.51-3.392-1.51-5.261a9.9 9.9 0 0 1 9.889-9.884c2.641 0 5.121 1.028 6.986 2.898s3.01 4.35 3.005 6.991c0 5.454-4.548 9.89-9.996 9.89zm5.421-7.404c-.295-.15-1.757-.868-2.03-.964-.273-.102-.472-.15-.67.15s-.766.964-.943 1.168c-.171.198-.348.225-.643.074-1.746-.873-2.892-1.558-4.044-3.535-.306-.525.305-.488.873-1.623.096-.199.048-.37-.027-.52s-.67-1.613-.916-2.207c-.241-.579-.487-.498-.67-.509-.171-.011-.369-.011-.567-.011s-.52.075-.793.37c-.274.3-1.04 1.018-1.04 2.48s1.067 2.877 1.211 3.075c.15.198 2.095 3.198 5.079 4.489 1.885.815 2.625.884 3.568.745.573-.086 1.757-.718 2.003-1.414s.247-1.291.172-1.414c-.07-.134-.268-.209-.563-.354z" fill="#fff"/><circle cx="190" cy="250" r="20" fill="#774d99"/><path d="M197.846 241.181c-.556-.512-2.804-2.143-7.818-2.165 0 0-5.909-.354-8.788 2.288-1.601 1.601-2.165 3.95-2.226 6.859s-.136 8.359 5.118 9.838h.004l-.004 2.257s-.035.914.568 1.098c.727.228 1.155-.468 1.851-1.216l1.303-1.474c3.596.302 6.356-.389 6.671-.49.727-.236 4.834-.761 5.499-6.212.691-5.625-.332-9.177-2.178-10.783zm.608 10.372c-.565 4.549-3.894 4.838-4.506 5.035-.263.083-2.69.687-5.739.49 0 0-2.275 2.743-2.984 3.456-.232.232-.485.21-.481-.25l.018-3.748c-4.454-1.234-4.191-5.875-4.143-8.303s.507-4.418 1.864-5.757c2.436-2.209 7.454-1.881 7.454-1.881 4.238.018 6.268 1.295 6.741 1.724 1.561 1.338 2.357 4.54 1.776 9.234zm-6.081-3.535c.018.377-.547.403-.564.027-.048-.963-.499-1.431-1.426-1.483-.376-.022-.341-.586.03-.565 1.221.066 1.899.766 1.96 2.021zm.888.495c.044-1.855-1.115-3.307-3.316-3.469-.371-.026-.332-.591.04-.564 2.537.183 3.889 1.929 3.84 4.046-.004.376-.573.359-.564-.013zm2.056.586c.005.376-.564.381-.564.004-.026-3.565-2.402-5.507-5.284-5.529-.372-.004-.372-.564 0-.564 3.223.022 5.818 2.248 5.848 6.089zm-.494 4.291v.009c-.473.831-1.356 1.75-2.266 1.457l-.009-.013c-.923-.258-3.097-1.378-4.471-2.472-.708-.56-1.356-1.22-1.854-1.855-.451-.564-.906-1.233-1.348-2.038-.931-1.684-1.137-2.437-1.137-2.437-.293-.91.621-1.793 1.457-2.266h.008c.403-.21.788-.14 1.046.171 0 0 .542.647.774.967.219.297.512.774.665 1.041.267.477.101.962-.162 1.163l-.525.42c-.267.215-.232.613-.232.613s.779 2.944 3.688 3.687c0 0 .398.035.613-.231l.42-.525c.201-.263.686-.429 1.163-.162.643.363 1.461.927 2.004 1.439.306.249.376.63.166 1.032z" fill="#fff"/><circle cx="174" cy="293" r="20" fill="#0075ff"/><path d="M174.225 282c-6.324 0-11.225 4.622-11.225 10.865 0 3.265 1.342 6.087 3.526 8.036.377.34.299.536.363 2.63a.9.9 0 0 0 .12.417.89.89 0 0 0 .712.449.9.9 0 0 0 .428-.072c2.389-1.052 2.42-1.136 2.825-1.025 6.923 1.905 14.427-2.525 14.427-10.435 0-6.243-4.851-10.865-11.176-10.865zm6.741 8.361l-3.297 5.22c-.125.196-.289.364-.481.494a1.67 1.67 0 0 1-1.329.245 1.69 1.69 0 0 1-.625-.291l-2.623-1.963a.68.68 0 0 0-.407-.136c-.146 0-.289.048-.406.136l-3.54 2.684c-.472.359-1.091-.207-.772-.707l3.297-5.22a1.69 1.69 0 0 1 1.119-.756 1.69 1.69 0 0 1 .69.017c.226.052.439.152.625.291l2.623 1.962c.117.088.259.136.406.136a.68.68 0 0 0 .407-.136l3.541-2.681c.471-.361 1.09.205.772.705z" fill="#fff"/><circle cx="231" cy="184" r="20" fill="#45668e"/><path d="M239.001 184.797c.224-.419 1.027-1.623 1.614-2.519 1.792-2.649 2.118-3.209 2.118-3.545 0-.124-.049-.243-.136-.33s-.206-.137-.33-.137h-4.199c-.109.001-.214.039-.297.109a.47.47 0 0 0-.16.274c-.233 1.287-3.265 4.982-3.732 5.225-.187 0-.466-.485-.466-1.4v-3.946a1.12 1.12 0 0 0-.02-.458c-.039-.15-.108-.289-.204-.41-.318-.327-.793-.327-2.118-.327-2.408 0-3.266.719-3.266 1.4-.005.058.002.118.021.173s.048.108.088.151.087.079.141.104a.43.43 0 0 0 .17.038s.513.336.513 2.333a13.67 13.67 0 0 1-.121 2.332c-1.185-.214-2.827-3.172-3.611-5.299a.47.47 0 0 0-.466-.299h-3.733a.46.46 0 0 0-.2.042.47.47 0 0 0-.258.304c-.018.067-.02.137-.008.205.522 2.808 6.438 11.579 10.263 11.579h1.866c.989 0 1.064-1.073 1.12-1.773s.093-1.027.28-1.027c.578 0 1.772 1.027 2.537 1.699s1.288 1.101 1.661 1.101h2.333c1.213 0 2.332 0 2.332-.933 0-.355-.308-.766-2.08-2.8l-1.652-1.866z" fill="#fff"/><circle cx="178" cy="200" r="20" fill="#00c80f"/><g clip-path="url(#C)" fill="#fff"><path d="M179.299 198.31c-6.76 3.483-2.264 12.829 6.16 10.388.786.305 1.486.8 2.247 1.167a52.3 52.3 0 0 0-.631-1.97c2.614-1.862 3.187-4.496 2.222-6.662-1.509-3.432-6.325-4.837-10.006-2.924l.008.001zm2.361 3.414c-.196.612-1.079.794-1.507.33-.473-.43-.29-1.329.331-1.522.685-.28 1.477.504 1.176 1.192zm4.461.088h.013c-.239.548-1.064.677-1.47.252-.196-.179-.252-.448-.321-.684.097-.429.392-.875.868-.896.658-.092 1.247.725.91 1.328z"/><path d="M183.586 197.031c-.407-2.001-1.807-3.691-3.569-4.666h.026c-6.254-3.535-14.04 1.394-12.535 7.207.404 1.725 1.596 3.171 3.044 4.135a74.59 74.59 0 0 0-.798 2.394l2.731-1.461c1.092.352 2.254.523 3.416.485-1.435-4.118 2.247-8.48 7.685-8.092v-.002zm-5.671-2.389c.732-.295 1.598.322 1.54 1.12l.012.002c.007.901-1.19 1.463-1.862.852-.698-.502-.5-1.722.319-1.974h-.009zm-4.112 1.35c-.16.782-1.204 1.16-1.816.634-.709-.501-.51-1.743.322-1.997.815-.315 1.742.515 1.494 1.363z"/></g><circle cx="142" cy="237" r="20" fill="#08c"/><path d="M138.795 241.297l-.37 5.21c.53 0 .759-.228 1.035-.501l2.485-2.375 5.148 3.77c.944.526 1.61.249 1.864-.868l3.379-15.835c.298-1.396-.503-1.941-1.424-1.599l-19.873 7.604c-1.355.526-1.334 1.282-.23 1.623l5.078 1.581 11.796-7.38c.555-.368 1.06-.164.644.203l-9.532 8.567z" fill="#fff"/><circle cx="125" cy="293" r="20" fill="#f36d23"/><path d="M129.182 292.815l7.551 4.774v-9.75l-7.551 4.976zm-14.849-4.976v9.75l7.552-4.774-7.552-4.976zm21-2.839h-19.6c-.698 0-1.253.521-1.358 1.191l11.158 7.352 11.158-7.352c-.105-.67-.659-1.191-1.358-1.191zm-7.434 8.66l-1.981 1.305c-.114.076-.248.116-.385.116s-.27-.04-.385-.116l-1.981-1.306-8.789 5.559c.108.665.66 1.182 1.355 1.182h19.6c.696 0 1.248-.517 1.356-1.182l-8.79-5.558z" fill="#fff"/><defs><filter id="A" x="0" y="0" width="282" height="342" filterUnits="userSpaceOnUse" color-interpolation-filters="sRGB"><feFlood flood-opacity="0" result="A"/><feColorMatrix in="SourceAlpha" values="0 0 0 0 0 0 0 0 0 0 0 0 0 0 0 0 0 0 127 0" result="B"/><feOffset/><feGaussianBlur stdDeviation="5"/><feComposite in2="B" operator="out"/><feColorMatrix values="0 0 0 0 0.309804 0 0 0 0 0.27451 0 0 0 0 0.898039 0 0 0 0.25 0"/><feBlend in2="A"/><feBlend in="SourceGraphic"/></filter><linearGradient id="B" x1="11" y1=".5" x2="271" y2="340.5" gradientUnits="userSpaceOnUse"><stop stop-color="#fff" stop-opacity="0"/><stop offset="1" stop-color="#4f46e5"/></linearGradient><clipPath id="C"><path fill="#fff" transform="translate(167.333 189.333)" d="M0 0h22.4v22.4H0z"/></clipPath></defs></svg>