<svg xmlns="http://www.w3.org/2000/svg" width="57" height="54" fill="none"><g clip-path="url(#A)"><path d="M46.763 18.804l-.019-.808V2.711l-4.225 4.226C39.06 2.704 33.799 0 27.906 0c-6.132 0-11.58 2.927-15.024 7.46l6.926 6.999c.678-1.253 1.639-2.331 2.806-3.148 1.209-.943 2.922-1.715 5.293-1.715.286 0 .507.034.67.096a9.13 9.13 0 0 1 6.98 4.204L30.654 18.8l16.109.003" fill="#1c3aa9"/><path d="M27.797.001l-.808.019H11.704l4.226 4.226c-4.233 3.458-6.937 8.719-6.937 14.612 0 6.133 2.927 11.581 7.46 15.024l6.999-6.926c-1.253-.678-2.331-1.639-3.148-2.806-.943-1.209-1.715-2.922-1.715-5.292 0-.286.034-.507.096-.67.232-2.936 1.852-5.482 4.205-6.98l4.903 4.902.003-16.109" fill="#4285f4"/><path d="M8.993 18.857l.019.808V34.95l4.225-4.225c3.458 4.233 8.719 6.937 14.612 6.937 6.133 0 11.581-2.927 15.024-7.46l-6.926-6.999c-.678 1.253-1.639 2.331-2.806 3.148-1.209.943-2.922 1.715-5.292 1.715-.286 0-.507-.034-.67-.097a9.13 9.13 0 0 1-6.98-4.204l4.902-4.903c-6.21.024-13.225.039-16.109-.003" fill="#ababab"/><path d="M12.175 44.963c-.459 0-.871.087-1.235.261a2.56 2.56 0 0 0-.927.731 3.42 3.42 0 0 0-.576 1.152c-.131.447-.196.948-.196 1.503v1.598c0 .558.066 1.061.196 1.508a3.49 3.49 0 0 0 .57 1.146 2.51 2.51 0 0 0 .891.73c.348.17.741.256 1.176.256.447 0 .839-.066 1.176-.196s.626-.319.855-.564.406-.55.529-.903a4.2 4.2 0 0 0 .226-1.2h-1.099a4.86 4.86 0 0 1-.143.885c-.067.241-.166.441-.297.6a1.13 1.13 0 0 1-.499.345c-.202.071-.451.107-.748.107-.317 0-.586-.069-.808-.208s-.402-.336-.54-.582-.234-.532-.297-.861a5.98 5.98 0 0 1-.089-1.063v-1.61c0-.408.036-.778.107-1.111s.188-.616.339-.849.341-.414.57-.541.503-.196.82-.196a1.77 1.77 0 0 1 .683.119 1.11 1.11 0 0 1 .475.356c.127.158.224.36.291.606a4.56 4.56 0 0 1 .137.879h1.099c-.02-.467-.093-.881-.22-1.241s-.303-.663-.529-.909a2.18 2.18 0 0 0-.825-.558c-.321-.127-.691-.19-1.111-.19zm26.823 0c-.459 0-.871.087-1.236.261a2.56 2.56 0 0 0-.927.731c-.249.317-.441.701-.576 1.152s-.196.948-.196 1.503v1.598a5.38 5.38 0 0 0 .196 1.508c.134.447.325.829.57 1.146a2.51 2.51 0 0 0 .891.73c.349.17.741.256 1.176.256.447 0 .84-.066 1.176-.196s.626-.319.855-.564.406-.55.529-.903.202-.752.226-1.2h-1.099c-.028.344-.075.64-.143.885s-.166.441-.297.6a1.13 1.13 0 0 1-.499.345c-.202.071-.451.107-.748.107-.317 0-.586-.069-.808-.208s-.402-.336-.54-.582-.233-.532-.297-.861a5.99 5.99 0 0 1-.089-1.063v-1.61a5.3 5.3 0 0 1 .107-1.111 2.63 2.63 0 0 1 .339-.849c.151-.234.34-.414.57-.541s.503-.196.82-.196c.266 0 .493.04.683.119s.348.194.475.356.224.36.291.606a4.56 4.56 0 0 1 .137.879h1.099c-.02-.467-.093-.881-.22-1.241s-.303-.663-.529-.909a2.18 2.18 0 0 0-.825-.558c-.321-.127-.691-.19-1.111-.19h0zm-20.562.119L15.65 53.73h1.117l.671-2.257h2.922l.683 2.257h1.117l-2.792-8.648h-.932zm4.9 0v8.648h1.087v-3.386h1.669c.416 0 .784-.058 1.105-.172s.59-.289.808-.511.388-.495.499-.82.172-.701.172-1.117c0-.384-.058-.737-.172-1.057s-.275-.604-.493-.837-.489-.422-.814-.552-.689-.196-1.105-.196h-2.756zm6.171 0v.938h2.269v7.709h1.087v-7.709h2.275v-.938h-5.631zm13.643 0v8.648h1.087v-3.997h3.481v3.997h1.093v-8.648h-1.093V48.8h-3.481v-3.718H43.15zm9.782 0l-2.785 8.648h1.117l.671-2.257h2.922l.683 2.257h1.117l-2.792-8.648h-.933zm-28.509.938h1.669c.265 0 .491.047.677.142a1.29 1.29 0 0 1 .463.38c.125.164.216.352.267.552.06.206.089.42.089.642a2.43 2.43 0 0 1-.089.677 1.42 1.42 0 0 1-.267.529c-.119.147-.273.261-.463.344s-.412.125-.677.125h-1.669v-3.391zm-5.523.582l1.182 3.932h-2.358l1.176-3.932zm34.496 0l1.182 3.932h-2.358l1.176-3.932zm-51.162.582a1.2 1.2 0 0 0-.707.208 1.66 1.66 0 0 0-.487.564l-.018-.653H0v6.426h1.051v-4.597c.099-.273.24-.489.422-.647s.422-.238.707-.238l.243.012a1.74 1.74 0 0 1 .232.03l-.006-1.022c-.025-.011-.051-.019-.077-.024a.67.67 0 0 0-.107-.03c-.041-.008-.083-.014-.125-.018-.035-.007-.071-.011-.107-.012h0zm3.534 0a2.5 2.5 0 0 0-.885.16c-.285.107-.538.283-.76.529s-.394.558-.528.95-.202.865-.202 1.431v.725c0 .491.058.917.172 1.277a2.41 2.41 0 0 0 .493.897 2.03 2.03 0 0 0 .79.523c.309.115.655.172 1.039.172.277 0 .525-.028.742-.083s.418-.127.588-.214c.159-.083.307-.187.44-.309a2.36 2.36 0 0 0 .315-.356l-.546-.665a2.84 2.84 0 0 1-.279.297c-.099.087-.208.164-.327.232a1.71 1.71 0 0 1-.392.148c-.158.037-.319.055-.481.054-.487 0-.861-.157-1.123-.469s-.386-.814-.386-1.503v-.149h3.587v-.612c0-.491-.042-.925-.125-1.301s-.216-.693-.398-.95-.419-.454-.701-.582c-.285-.135-.63-.202-1.034-.202zm0 .903c.23 0 .42.041.57.125a.92.92 0 0 1 .356.35c.091.15.156.331.196.541a4.3 4.3 0 0 1 .083.683v.143h-2.53c.016-.36.06-.659.131-.897a1.6 1.6 0 0 1 .279-.564.95.95 0 0 1 .41-.297c.162-.057.333-.085.505-.083h0z" fill="#a6a6a6"/></g><defs><clipPath id="A"><path fill="#fff" d="M0 0h56.656v54H0z"/></clipPath></defs></svg>