<svg xmlns="http://www.w3.org/2000/svg" width="282" height="342" fill="none"><g filter="url(#A)"><rect x="11" y="11" width="260" height="320" rx="10" fill="#fff"/><rect x="11" y="11" width="260" height="320" rx="10" fill="url(#B)" fill-opacity=".2"/><rect x="10.5" y="10.5" width="261" height="321" rx="10.5" stroke="#4f46e5"/></g><circle cx="231" cy="290" r="25" fill="#4f46e5"/><circle cx="231" cy="109" r="25" fill="#4dc247"/><circle cx="231" cy="171" r="25" fill="#0075ff"/><circle cx="231" cy="230" r="25" fill="#774d99"/><path d="M240.92 277.36h-19.84a3.21 3.21 0 0 0-3.2 3.2V294a3.21 3.21 0 0 0 3.2 3.2h2.56v5.44l8-5.44h9.28a3.21 3.21 0 0 0 3.2-3.2v-13.44a3.21 3.21 0 0 0-3.2-3.2zm-16.064 6.4h6.528a.96.96 0 1 1 0 1.92h-6.528c-.512 0-.96-.416-.96-.96 0-.512.416-.96.96-.96zm11.648 6.4h-11.648c-.512 0-.96-.416-.96-.96 0-.512.416-.96.96-.96h11.648a.96.96 0 1 1 0 1.92zm5.003-191.801C238.701 95.547 234.964 94 230.993 94c-8.196 0-14.866 6.67-14.866 14.866 0 2.618.683 5.176 1.982 7.433L216 124l7.882-2.069c2.169 1.185 4.614 1.808 7.105 1.808h.006c8.19 0 15.007-6.67 15.007-14.866 0-3.971-1.688-7.701-4.493-10.514zm-10.514 22.875c-2.223 0-4.399-.596-6.294-1.721l-.449-.267-4.674 1.225 1.245-4.56-.294-.469c-1.239-1.969-1.889-4.239-1.889-6.576 0-6.81 5.545-12.355 12.362-12.355 3.301 0 6.402 1.286 8.732 3.623s3.764 5.437 3.757 8.739c0 6.817-5.685 12.361-12.496 12.361zm6.777-9.254c-.368-.188-2.196-1.085-2.538-1.205-.341-.128-.589-.188-.837.187s-.957 1.205-1.178 1.46c-.215.248-.436.281-.804.094-2.183-1.092-3.616-1.949-5.056-4.42-.382-.656.382-.609 1.092-2.029.12-.248.06-.462-.034-.65s-.837-2.015-1.145-2.759c-.301-.723-.609-.622-.837-.636-.214-.013-.462-.013-.71-.013s-.649.094-.991.462c-.341.375-1.299 1.272-1.299 3.1s1.333 3.596 1.513 3.844c.188.248 2.619 3.998 6.349 5.612 2.357 1.018 3.281 1.105 4.459.931.717-.108 2.197-.898 2.505-1.768s.308-1.614.214-1.768c-.087-.168-.335-.261-.703-.442zM231.032 157c-7.906 0-14.032 5.778-14.032 13.581 0 4.082 1.677 7.609 4.407 10.046.472.424.375.669.455 3.287.006.183.057.363.149.522a1.13 1.13 0 0 0 .375.391c.155.098.332.156.515.17a1.13 1.13 0 0 0 .535-.091c2.987-1.315 3.025-1.419 3.532-1.281 8.654 2.381 18.033-3.157 18.033-13.044 0-7.803-6.063-13.581-13.969-13.581zm8.425 10.451l-4.121 6.525c-.156.245-.36.456-.601.618a2.13 2.13 0 0 1-.798.327 2.11 2.11 0 0 1-.863-.021c-.283-.066-.549-.19-.782-.364l-3.278-2.454a.85.85 0 0 0-.509-.169c-.183 0-.361.059-.508.169l-4.424 3.356a.67.67 0 0 1-.966-.885l4.121-6.524c.156-.245.36-.456.601-.619a2.11 2.11 0 0 1 .799-.326c.286-.053.579-.046.862.02a2.12 2.12 0 0 1 .782.364l3.277 2.454a.85.85 0 0 0 .509.169c.183 0 .361-.059.508-.169l4.426-3.352c.59-.451 1.363.256.965.881zm2.1 51.276c-.694-.64-3.505-2.68-9.771-2.707 0 0-7.388-.443-10.986 2.86-2.001 2.001-2.706 4.937-2.783 8.574s-.17 10.449 6.398 12.297h.005l-.005 2.822s-.044 1.143.71 1.372c.908.285 1.444-.585 2.313-1.52a86.69 86.69 0 0 0 1.63-1.843c4.495.378 7.945-.486 8.339-.612.907-.295 6.042-.952 6.873-7.765.864-7.032-.415-11.472-2.723-13.478zm.76 12.964c-.705 5.687-4.867 6.048-5.632 6.294-.328.104-3.363.859-7.174.612 0 0-2.844 3.429-3.729 4.32-.29.29-.607.263-.602-.311l.022-4.687c-5.566-1.542-5.238-7.343-5.178-10.378s.634-5.523 2.329-7.196c3.046-2.761 9.318-2.351 9.318-2.351 5.298.022 7.835 1.618 8.426 2.154 1.952 1.673 2.947 5.676 2.22 11.543zm-7.601-4.418c.022.47-.683.503-.705.033-.06-1.203-.623-1.788-1.783-1.854-.47-.027-.426-.733.039-.705 1.525.082 2.373.957 2.449 2.526zm1.11.618c.055-2.318-1.394-4.134-4.144-4.336-.465-.033-.416-.738.049-.706 3.171.23 4.861 2.412 4.801 5.058-.006.471-.716.449-.706-.016zm2.57.733c.006.47-.705.475-.705.005-.033-4.456-3.002-6.884-6.605-6.911-.465-.006-.465-.706 0-.706 4.03.027 7.272 2.811 7.31 7.612zm-.617 5.364v.011c-.591 1.039-1.696 2.187-2.833 1.821l-.011-.017c-1.154-.322-3.871-1.722-5.588-3.089a14.32 14.32 0 0 1-2.319-2.319c-.563-.705-1.132-1.542-1.684-2.548-1.165-2.105-1.422-3.045-1.422-3.045-.366-1.138.777-2.242 1.821-2.833h.011c.503-.262.985-.175 1.307.213a32.79 32.79 0 0 0 .968 1.209c.273.372.64.968.831 1.301.334.596.126 1.203-.202 1.455l-.656.525c-.334.268-.29.765-.29.765s.973 3.68 4.609 4.61c0 0 .498.043.766-.29l.525-.656c.251-.328.858-.536 1.454-.203.804.454 1.827 1.16 2.505 1.799.383.312.47.788.208 1.291z" fill="#fff"/><defs><filter id="A" x="0" y="0" width="282" height="342" filterUnits="userSpaceOnUse" color-interpolation-filters="sRGB"><feFlood flood-opacity="0" result="A"/><feColorMatrix in="SourceAlpha" values="0 0 0 0 0 0 0 0 0 0 0 0 0 0 0 0 0 0 127 0" result="B"/><feOffset/><feGaussianBlur stdDeviation="5"/><feComposite in2="B" operator="out"/><feColorMatrix values="0 0 0 0 0.309804 0 0 0 0 0.27451 0 0 0 0 0.898039 0 0 0 0.25 0"/><feBlend in2="A"/><feBlend in="SourceGraphic"/></filter><linearGradient id="B" x1="11" y1="11" x2="271" y2="331" gradientUnits="userSpaceOnUse"><stop stop-color="#fff" stop-opacity="0"/><stop offset="1" stop-color="#4f46e5"/></linearGradient></defs></svg>