<svg xmlns="http://www.w3.org/2000/svg" width="280" height="340" fill="none"><g filter="url(#A)"><rect x="10" y="10" width="260" height="320" rx="10" fill="#fff"/></g><circle cx="230" cy="289" r="25" fill="#9e9e9e"/><g filter="url(#B)"><rect x="75" y="77" width="180" height="174" rx="5" fill="#f7f7f7"/></g><g fill="#d9d9d9"><path d="M75 82a5 5 0 0 1 5-5h170a5 5 0 0 1 5 5v31H75V82z"/><circle cx="101" cy="225" r="15"/><path d="M107.304 218.616a8.85 8.85 0 0 0-6.308-2.616c-4.918 0-8.92 4.002-8.92 8.92 0 1.571.41 3.105 1.189 4.459L92 234l4.729-1.242c1.302.712 2.768 1.085 4.263 1.085h.004c4.914 0 9.004-4.001 9.004-8.919 0-2.383-1.013-4.621-2.696-6.308zm-6.308 13.725a7.4 7.4 0 0 1-3.777-1.033l-.269-.161-2.805.736.747-2.737-.177-.281c-.743-1.181-1.133-2.543-1.133-3.945 0-4.087 3.327-7.413 7.417-7.413 1.981 0 3.841.771 5.239 2.173s2.258 3.263 2.254 5.244c0 4.09-3.411 7.417-7.497 7.417zm4.066-5.553c-.221-.113-1.318-.651-1.523-.723s-.353-.113-.502.112-.574.723-.707.876-.261.169-.482.056c-1.31-.655-2.17-1.169-3.034-2.651-.229-.394.229-.366.655-1.218.072-.148.036-.277-.02-.39s-.502-1.209-.687-1.655c-.181-.434-.366-.374-.502-.382-.129-.008-.277-.008-.426-.008s-.39.057-.595.278-.779.763-.779 1.86.8 2.157.908 2.306 1.571 2.399 3.809 3.367c1.414.611 1.969.663 2.676.559.43-.065 1.318-.539 1.502-1.061s.185-.968.129-1.061c-.052-.1-.201-.157-.422-.265z"/><circle cx="101" cy="182" r="15"/><path d="M101.169 173.75c-4.743 0-8.419 3.467-8.419 8.149 0 2.449 1.006 4.565 2.644 6.027.283.254.225.402.273 1.972.004.11.034.218.089.313s.132.176.225.235a.67.67 0 0 0 .309.102.68.68 0 0 0 .321-.054c1.792-.79 1.815-.852 2.119-.769 5.192 1.429 10.82-1.894 10.82-7.826 0-4.682-3.638-8.149-8.382-8.149zm5.055 6.271l-2.472 3.915a1.29 1.29 0 0 1-.361.371 1.27 1.27 0 0 1-.479.195 1.25 1.25 0 0 1-.517-.012 1.28 1.28 0 0 1-.47-.218l-1.967-1.473c-.088-.066-.195-.101-.305-.101s-.217.035-.305.101l-2.655 2.014c-.354.268-.818-.156-.58-.531l2.473-3.915c.093-.147.216-.273.361-.371a1.28 1.28 0 0 1 .479-.196 1.27 1.27 0 0 1 .517.013 1.26 1.26 0 0 1 .469.218l1.967 1.472a.51.51 0 0 0 .305.102.51.51 0 0 0 .304-.102l2.656-2.011a.4.4 0 0 1 .579.529z"/><circle cx="101" cy="139" r="15"/><path d="M106.884 132.386c-.416-.384-2.103-1.608-5.863-1.624 0 0-4.432-.266-6.591 1.716-1.201 1.201-1.624 2.962-1.67 5.144s-.102 6.27 3.838 7.379h.003l-.003 1.693s-.026.685.427.823c.545.171.866-.351 1.388-.912l.978-1.106c2.697.227 4.767-.292 5.003-.367.545-.177 3.625-.571 4.124-4.659.518-4.219-.249-6.883-1.634-8.087zm.456 7.779c-.423 3.412-2.92 3.628-3.379 3.776-.197.062-2.018.515-4.305.367l-2.237 2.592c-.174.174-.364.158-.361-.187l.013-2.811c-3.34-.926-3.143-4.407-3.107-6.227s.381-3.314 1.398-4.318c1.827-1.657 5.59-1.411 5.59-1.411 3.18.013 4.702.971 5.056 1.293 1.171 1.004 1.769 3.405 1.332 6.926zm-4.56-2.651c.013.282-.41.302-.423.02-.036-.722-.374-1.073-1.07-1.113-.282-.016-.256-.439.023-.423.915.049 1.424.574 1.47 1.516zm.666.371c.033-1.391-.837-2.481-2.487-2.602-.279-.02-.249-.443.03-.423 1.902.137 2.916 1.447 2.88 3.034-.003.283-.43.269-.423-.009zm1.542.439c.003.282-.423.286-.423.003-.02-2.673-1.802-4.13-3.964-4.146-.279-.004-.279-.424 0-.424 2.418.017 4.364 1.687 4.387 4.567zm-.371 3.219v.006c-.354.624-1.017 1.313-1.699 1.093l-.007-.01c-.692-.194-2.323-1.034-3.353-1.854-.531-.42-1.017-.915-1.391-1.391-.338-.423-.679-.925-1.011-1.529-.699-1.263-.853-1.827-.853-1.827-.22-.683.466-1.345 1.093-1.7h.007c.302-.157.59-.105.784.128l.581.725c.164.224.384.581.499.781.2.358.075.722-.121.873l-.394.315c-.2.161-.174.459-.174.459s.584 2.208 2.766 2.766c0 0 .298.026.459-.174l.315-.394c.151-.196.515-.321.873-.121.482.272 1.096.696 1.502 1.079.23.187.283.473.125.775z"/></g><g fill="#9e9e9e"><path d="M214 273h32v32h-32z"/><path d="M239.92 276.36h-19.84a3.21 3.21 0 0 0-3.2 3.2V293a3.21 3.21 0 0 0 3.2 3.2h2.56v5.44l8-5.44h9.28a3.21 3.21 0 0 0 3.2-3.2v-13.44a3.21 3.21 0 0 0-3.2-3.2zm-16.064 6.4h6.528a.94.94 0 1 1 0 1.92h-6.528c-.512 0-.96-.416-.96-.96 0-.512.416-.96.96-.96zm11.648 6.4h-11.648c-.512 0-.96-.416-.96-.96 0-.512.416-.96.96-.96h11.648a.94.94 0 1 1 0 1.92z"/></g><rect x="86" y="87" width="141" height="16" rx="4" fill="#b2b2b2"/><g fill="#d9d9d9"><rect x="123" y="131" width="110" height="16" rx="4"/><rect x="123" y="174" width="110" height="16" rx="4"/><rect x="123" y="217" width="110" height="16" rx="4"/></g><defs><filter id="A" x="0" y="0" width="280" height="340" filterUnits="userSpaceOnUse" color-interpolation-filters="sRGB"><feFlood flood-opacity="0" result="A"/><feColorMatrix in="SourceAlpha" values="0 0 0 0 0 0 0 0 0 0 0 0 0 0 0 0 0 0 127 0" result="B"/><feOffset/><feGaussianBlur stdDeviation="5"/><feComposite in2="B" operator="out"/><feColorMatrix values="0 0 0 0 0 0 0 0 0 0 0 0 0 0 0 0 0 0 0.25 0"/><feBlend in2="A"/><feBlend in="SourceGraphic"/></filter><filter id="B" x="65" y="67" width="200" height="194" filterUnits="userSpaceOnUse" color-interpolation-filters="sRGB"><feFlood flood-opacity="0" result="A"/><feColorMatrix in="SourceAlpha" values="0 0 0 0 0 0 0 0 0 0 0 0 0 0 0 0 0 0 127 0" result="B"/><feOffset/><feGaussianBlur stdDeviation="5"/><feComposite in2="B" operator="out"/><feColorMatrix values="0 0 0 0 0 0 0 0 0 0 0 0 0 0 0 0 0 0 0.1 0"/><feBlend in2="A"/><feBlend in="SourceGraphic"/></filter></defs></svg>