<svg xmlns="http://www.w3.org/2000/svg" height="291" preserveAspectRatio="xMidYMid" width="256"><g fill="#59473d"><path d="M243.813 261.514c-.459.304-.934.454-1.427.454a2.62 2.62 0 0 1-1.897-.783c-.533-.522-.803-1.21-.803-2.058 0-.793.231-1.469.692-2.026s1.09-.837 1.891-.837c.51 0 .952.105 1.327.315.611.341.99.938 1.137 1.79l-1.228-.019c-.074-.396-.231-.661-.47-.797-.201-.128-.421-.191-.66-.191-.362 0-.659.15-.889.446s-.346.748-.346 1.347.127 1.029.382 1.298a1.22 1.22 0 0 0 .917.404c.328 0 .575-.089.743-.267s.276-.404.323-.674h1.195c-.13.76-.425 1.294-.886 1.597zm-4.375-5.191c-.767.784-1.151 1.715-1.151 2.79 0 1.117.39 2.064 1.171 2.842a3.81 3.81 0 0 0 2.81 1.171 3.79 3.79 0 0 0 2.803-1.177c.776-.788 1.163-1.733 1.163-2.836 0-1.071-.385-2.001-1.157-2.79-.779-.801-1.715-1.202-2.81-1.202-1.106 0-2.049.401-2.83 1.202zm6.202 6.247a4.67 4.67 0 0 1-3.371 1.359c-1.354 0-2.497-.464-3.423-1.392a4.66 4.66 0 0 1-1.394-3.424 4.59 4.59 0 0 1 1.502-3.508 4.72 4.72 0 0 1 3.314-1.307 4.63 4.63 0 0 1 4.816 4.815 4.63 4.63 0 0 1-1.445 3.457zm10.294-51.701l-.114-1.377a6.55 6.55 0 0 0-.161-.851c-.12-.643-.267-1.281-.483-1.887l-.005-.011a10.91 10.91 0 0 0-2.014-3.489 10.45 10.45 0 0 0-2.985-2.38l-.034-.019c-1.123-.589-2.227-.917-3.229-1.109l-.843-.112c1.28-5.483-.322-9.67-1.357-11.628l.241-.228c1.367-1.32 2.528-2.582 3.505-3.851l.185-.253a12.21 12.21 0 0 0 1.636-3.344c.283-.911.422-1.735.505-2.488l.009.001.008-.046.005-.107.032-.232h-.018l.014-.26h.007l.003-.155a12.92 12.92 0 0 0 .009-.482 13.75 13.75 0 0 0-.009-.986c-.075-1.698-.382-3.906-1.498-6.296a14.42 14.42 0 0 0-2.352-3.551 14.72 14.72 0 0 0-3.755-2.981l.008.003c-.106-.059-.19-.116-.288-.174-3.037-4.472-6.506-7.938-9.582-10.568a72.97 72.97 0 0 0-4.354-3.43l-2.907-2.09.006.003a29.04 29.04 0 0 0-2.84-1.861c-1.109-.674-1.933-1.211-2.431-1.587-.388-.293-.578-.482-.648-.559l-.038-.049c-.007-.01-.049-.094-.107-.393s-.129-.809-.159-1.548c-.051-1.161-.011-2.861.116-5.106l1.037-15.341c.14-2.146.161-4.168.082-6.075-.127-3.056-.522-5.825-1.161-8.334l-.002-.014c-.14-.571-.304-1.131-.475-1.684l-.002-.005-.003-.007c-.129-.412-.242-.723-.312-.921l.005.011a27.2 27.2 0 0 0-.41-1.099l-.005-.016-.288-.699-.002-.007-.002-.005a22.76 22.76 0 0 0-.828-1.758l-.089-.168-.167-.298-.119-.2a27.49 27.49 0 0 0-1.947-2.796 46.88 46.88 0 0 0-1.929-6.458c-.879-2.297-2.057-4.845-3.732-7.359-.581-.865-1.242-1.724-1.966-2.564l.241-.25c.338-.354 8.384-8.781 14.685-19.715 11.742-20.382 7.833-32.843 2.489-39.707l-.152-.192-.161-.18c-5.153-5.728-12.161-9.179-20.831-10.256-17.955-2.233-38.259 6.577-43.583 9.083l-9.678-10.691-.037-.04a18.44 18.44 0 0 0-2.824-2.519c-1.025-.74-2.123-1.377-3.275-1.911-2.313-1.073-4.85-1.744-7.551-2.08-5.416-.667-11.497-.019-18.11 1.676-9.912 2.557-21.044 7.509-32.68 14.489C74.6 24.28 62.48 33.3 50.713 44.032c-14.379 13.114-26.257 26.98-34.911 40.14-4.323 6.582-7.844 12.988-10.461 19.063-2.611 6.079-4.328 11.826-4.99 17.144-.479 3.866-.403 7.518.373 10.885a21.26 21.26 0 0 0 1.449 4.228c.8 1.723 1.836 3.32 3.124 4.733l.032.034 11.26 11.793-.065.112c-.122.213-.236.429-.356.645l-.515.962-.328.664-.47.992-.298.676a29.8 29.8 0 0 0-.427 1.024l-.268.682-.381 1.057-.232.69c-.118.361-.226.724-.335 1.09l-.094.301-.106.389c-.105.374-.196.753-.289 1.133l-.167.684-.105.499-.138.704-.123.639c-.083.476-.153.96-.22 1.441-.017.143-.045.281-.062.425l-.005.04-.011.129c-.038.314-.065.63-.098.95a35.86 35.86 0 0 0-.113 1.499c-.016.219-.026.444-.037.668l-.026.517c-.009.35-.005.704-.007 1.062v.639c.002.128-.002.253 0 .381v.072l.022.684c.011.251.034.497.05.744l.026.553.035.393.067.701a26.76 26.76 0 0 0 .094.88l.002.027v-.005l.045.313.118.792a33.27 33.27 0 0 0 .128.832l.066.34.094.475.002.013.005.022.042.202a23.71 23.71 0 0 0 .179.867l.059.252.138.543.058.242.067.265.058.223.05.186.043.169.065.219.062.229.167.534.268.856-.021-.061.023.07c.029.089.051.147.078.221l.236.667.007.014v.002l.323.883.002.006.002.009-.002-.009.013.035-.006-.017.065.159.229.562.073.18.011.029.15.357.201.469-.007-.015.08.172.205.445.153.321-.006-.015.008.019.007.015-.007-.015.369.766.013.03.009.016.067.132.192.365.216.403.011.025.372.686.011.019.011.023.068.114.194.337.28.47.024.037.005.011.374.611.016.026.049.08.242.376.327.49-.016-.024.435.639.015.023.009.017-.017-.029.019.03.016.022-.005-.003.007.009.002.002.274.384.355.484-.007-.01.387.519.034.045.339.434.405.5.042.054.323.389.061.072-.002.001.021.025.035.038c.203.239.386.443.569.647l.194.223.002.003.008.008.015.015-.005-.003.34.373.043.049.001.003.007.006.027.027-.007-.007a26.8 26.8 0 0 0 .653.678l.268.277.01.01c.047.045.152.154.322.324l.033.03.097.102c.261.256.534.502.804.751l.063.062.017.014.007.007.009.009.341.309.017.018a45.8 45.8 0 0 0 1.04.892l.019.017.196.162.134.108-.005-.005.201.159.856.672.078.062.037.026.227.17.054.042.042.029.243.174.738.521.208.146.024.017.257.175.011.005.131.084c.25.169.517.335.782.505l.411.261.225.137.127.074.083.049c.412.248.8.472 1.154.667l.034.017.22.12.016.011 1.397.72.076.037.241.115.002-.002c.239.115.47.216.707.322l.335.152.408.188.114.049.033.014.054.024c.229.097.454.179.68.272l.115.043.763.306.061.022.187.067.361.123.112.038 1.097.379.087.027.032.01.013.007a46.81 46.81 0 0 0 1.703.493l.023.006.096.024-.033-.007c.501.131.994.244 1.483.354h.006l.182.048.19.04c.466.102.941.184 1.419.267l.135.037.337.051c.288.047.575.084.863.123l.124.338.005.016a121.33 121.33 0 0 0 2.555 6.402c13.506 37.375 50.841 66.348 93.443 71.644s88.082-23.019 106.61-61.284a89.74 89.74 0 0 0 2.192-4.292c1.837-1.892 3.264-3.853 4.212-5.933 1.135-2.444 1.516-5.018 1.41-7.123"/><path d="M218.468 101.184l.005.01.002.003zM30.475 205.814l-.002-.002h-.002zM18.41 194.511l.002.005v-.003z"/><path d="M18.416 194.522l.002.001-.007-.008zm-5.65-11.969l-.005-.017-.002-.003zm-.478-1.891l-.001-.007-.002-.002zm7.22 15.349l.014.017-.019-.024-.011-.015z"/></g><path d="M219.494 24.087c-2.063-2.294-4.449-4.022-7.042-5.302L211 18.289l-.735-.458c-2.292-.878-4.718-1.451-7.214-1.772-12.378-1.593-26.469 2.914-34.528 6.114l-1.338.561-2.052.888-3.538 1.606-.522.245-3.175-3.689-.91-1.058-.393-.459-8.307-9.645-.722-.838-.893-1.035-.159.035-2.35.532-2.714.614c-1.5-.696-3.282-1.193-5.345-1.45-4.132-.521-9.378-.042-15.354 1.502-5.977 1.534-12.678 4.115-19.785 7.654-14.215 7.074-30.039 17.975-45.267 31.867-5.313 4.845-10.268 9.795-14.823 14.761-4.425 4.817-8.471 9.649-12.102 14.415-7.373 9.677-13.024 19.089-16.633 27.484-2.41 5.594-3.901 10.734-4.446 15.133-.402 3.198-.297 5.995.239 8.306a14.23 14.23 0 0 0 .662 2.077c.539 1.365 1.247 2.542 2.161 3.551l9.213 9.652.988 1.033.065-.07a40.37 40.37 0 0 1 .861-.967l.078-.084c.106-.114.217-.221.323-.331l.841-.86c.177-.175.356-.342.537-.513l.524-.5c.081-.073.163-.14.245-.213.187-.17.381-.337.575-.505l.819-.691.49-.395.072-.056.885-.676.565-.414.936-.647.569-.378c.323-.21.653-.414.983-.615l.571-.344c.346-.203.696-.395 1.046-.587l.558-.304.21-.111.032-.018c.297-.153.601-.295.902-.44l.503-.244c.252-.12.51-.229.767-.341l.669-.29.249-.11a39.57 39.57 0 0 1 1.722-.656c.183-.066.372-.122.557-.186l.601-.198.234-.08.358-.113.744-.21.184-.05.863-.234c.269-.07.541-.128.814-.191l1.012-.224.424-.086.43-.073 1-.168.885-.124.71-.089.289-.026c.11-.013.213-.029.323-.038l.178-.01a34.05 34.05 0 0 1 3.887.067l.216.014a36.87 36.87 0 0 1 4.592.687l1.172.26.25-.46 2.604-4.516c5.131-8.601 10.633-16.12 16.25-22.676a155.72 155.72 0 0 1 5.781-6.391c8.057-8.413 16.16-14.965 23.57-20.024 1.646-1.123 3.258-2.174 4.828-3.156a137.23 137.23 0 0 1 6.155-3.626 129.08 129.08 0 0 1 4.575-2.417c2.419-1.217 4.623-2.226 6.56-3.056l1.722-.719 2.337-.917c-.611-.064-1.231-.113-1.864-.146-.59-.031-1.191-.042-1.797-.043-.153-.001-.304.001-.457.001-.612.008-1.23.023-1.855.062a37.95 37.95 0 0 0-3.642.39c-.414.065-.831.138-1.252.221a54.37 54.37 0 0 1 9.061-3.696 55.84 55.84 0 0 1 5.688-1.427c2.524-.487 4.91-.771 7.111-.914a57.03 57.03 0 0 1 4.152-.118c1.295.013 2.485.068 3.556.148 3.741.281 5.996.853 5.996.853-.531-.748-1.2-1.4-1.927-1.968-1.324-1.026-2.85-1.762-4.188-2.282-.526-.204-1.027-.382-1.468-.521-.35-.11-.677-.204-.946-.277a50.81 50.81 0 0 1 1.868-.282 50.34 50.34 0 0 1 1.929-.224c5.392-.505 10.107-.04 13.65.618 4.272.79 6.844 1.864 6.844 1.864-.609-1.187-1.512-2.201-2.499-3.056-.72-.621-1.481-1.161-2.208-1.609 1.432.331 2.793.7 4.086 1.095 3.416 1.043 6.321 2.257 8.607 3.359.74.357 1.417.701 2.024 1.026l.493.268c2.092 1.142 3.248 1.961 3.248 1.961-.349-1.231-1.059-2.393-1.888-3.436-.208-.261-.419-.521-.636-.765l.1.046.469.154.609.212c.91.331 2.302.887 3.938 1.7l.239.119.676.35c.562.296 1.142.624 1.734.977a36.18 36.18 0 0 1 1.682 1.063 33.69 33.69 0 0 1 .876.609c.624.448 1.244.928 1.86 1.442a29.2 29.2 0 0 1 1.849 1.686l.356.358c.438.45.861.924 1.268 1.416a22.69 22.69 0 0 1 2.133 3.006c.764 1.292 1.416 2.687 1.902 4.206.026.086.049.175.073.26.353-.379.975-1.061 1.784-1.99 6.726-7.731 26.53-32.838 14.598-48.158" fill="#141c26"/><g fill="#856249"><path d="M249.088 211.659l.003-.001s.233-1.739-.686-3.294l-.021-.042a3.43 3.43 0 0 0-.169-.26l-.061-.09a4.25 4.25 0 0 0-.348-.397 4.17 4.17 0 0 0-.8-.655 4.84 4.84 0 0 0-.529-.299c-.522-.249-1.146-.438-1.888-.547-.542-.079-1.162-.102-1.837-.081l-.837.042-.134.008.049.179.131.492.067.269.329 1.426c-.001.005-.034.112-.121.314l-.046.107c-.338.785-1.257 2.6-3.304 4.959l-1.149 1.252c-5.711 5.9-18.069 14.302-44.07 19.002-8.823 1.244-16.957 1.313-23.905.449-10.274-1.278-17.972-4.56-21.553-8.973a16.74 16.74 0 0 1-.865-1.163 16.82 16.82 0 0 1-.571-.884c-.064-.11-.122-.221-.185-.331-1.539-2.721-2.209-5.687-2.171-8.559.049-3.488 1.137-6.825 2.979-9.39 1.494-2.08 3.481-3.652 5.804-4.378a9.9 9.9 0 0 1 3.637-.428 21.29 21.29 0 0 1 1.025.107l3.511.464.487.062c4.879.606 12.65 1.339 22.047.766 17.095-1.041 39.596-6.421 60.029-24.845l.056-.072v-.032c.068-1.544-.138-4.33-2.088-6.498a7.8 7.8 0 0 0-1.19-1.07c-.259-.19-.527-.371-.827-.54s-.574-.335-.839-.503c-.362-.227-.703-.453-1.006-.678l-.045-.065c-.138-.216-.285-.426-.426-.642-5.301-8.027-12.602-12.686-15.513-14.821-1.373-1.009-2.248-1.469-2.248-1.469-6.304-3.841-7.229-5.115-6.64-15.545l1.037-15.385a54.19 54.19 0 0 0 .097-2.511l.008-.574a46.32 46.32 0 0 0-.032-2.239l-.007-.207-.017-.221a53.74 53.74 0 0 0-.119-1.652l-.069-.703a30.91 30.91 0 0 0-.224-1.665c-.045-.274-.098-.538-.148-.805a29.26 29.26 0 0 0-.179-.881l-.194-.841-.002-.001.002-.003v.003c-.084-.337-.183-.655-.275-.974-.034-.116-.062-.237-.099-.35l-.107-.313-.035-.106-.107-.306-.003-.021-.268-.72-.029-.078-.091-.221-.11-.273-.025-.053v-.007a18.78 18.78 0 0 0-.597-1.273l-.167-.297a20.25 20.25 0 0 0-.734-1.121l-.1-.15-.124-.166a19.93 19.93 0 0 0-.54-.711l-.247-.309a20.83 20.83 0 0 0-.726-.823v-.002l-.006-.041-.007-.05-.014-.07-.018-.099-.015-.099-.032-.161-.015-.097-.045-.225-.017-.08a39.71 39.71 0 0 0-.369-1.642l-.009-.048-.129-.498-.018-.065-.15-.551-.007-.013a40.35 40.35 0 0 0-.426-1.412 11.48 11.48 0 0 0-.167-.493c-.114-.347-.233-.692-.365-1.053l-.241-.623a26.62 26.62 0 0 0-.411-1.014c-.094-.226-.199-.449-.297-.677a34.59 34.59 0 0 0-.481-1.016l-.35-.692a28.83 28.83 0 0 0-.575-1.027l-.388-.658c-.229-.366-.477-.726-.727-1.085-.127-.177-.244-.362-.377-.54-.115-.154-.247-.297-.368-.448-.288-.368-.572-.735-.887-1.081l-.038-.039-.179-.17c-.405-.435-.831-.86-1.289-1.25l-.082-.07a14.05 14.05 0 0 0-.622-.495l-.022-.018-.076-.055c-.182-.137-.37-.268-.559-.396l-.1-.071.04.034c-.2-.148-.564-.34-1.041-.554l-.546-.231c-.984-.394-2.314-.841-3.89-1.26-.098-.027-.202-.051-.298-.075a46.06 46.06 0 0 0-4.309-.902 42.61 42.61 0 0 0-1.58-.223c-.252-.032-.511-.045-.765-.072l-.311-.029c-1.212-.116-2.444-.196-3.682-.185l-.073.002c-1.594.015-3.191.147-4.712.449.357-.594 1.324-1.249 2.295-1.797 1.208-.684 2.419-1.192 2.419-1.192-.691.051-1.399.15-2.105.264l-.686.111-.444.084-.129.026-.369.078c-3.554.757-6.974 2.037-8.876 2.813l-.714.297-.12.05-.573.074.005-.006c1.402-2.593 3.472-3.99 5.047-4.728a11.8 11.8 0 0 1 .776-.336c.089-.034.163-.057.243-.087a11.63 11.63 0 0 1 .589-.192c.372-.108.614-.156.614-.156-.169.005-.327.026-.492.035l-.417.033-.615.045c-.121.013-.248.015-.369.027-3.93.426-7.424 1.758-10.419 3.412a36.03 36.03 0 0 0-5.443 3.702l-1.263.265c-4.296.917-9.204 2.098-14.364 3.682a133.46 133.46 0 0 0-5.804 1.926 119.95 119.95 0 0 0-4.597 1.768 106.57 106.57 0 0 0-3.304 1.409c-7.923 3.537-15.73 8.233-22.29 14.532l-.716.671a57.9 57.9 0 0 0-1.67 1.756c-.225.242-.461.469-.682.716-.277.306-.533.636-.804.95-1.223 1.424-2.399 2.9-3.487 4.47a52.2 52.2 0 0 0-2.304 3.625l-.089.147a53.19 53.19 0 0 0-3.902 8.395 56.64 56.64 0 0 0-1.46 4.642l-.328 1.279-.058.224a60.52 60.52 0 0 0-1.015 5.392l-.158 1.097a64.21 64.21 0 0 0-.285 2.827 70.82 70.82 0 0 0-.166 2.661l-.009.207-.051 1.323-.006 1.547-.003.363a78.07 78.07 0 0 0 .065 3.077l.011.167a77.94 77.94 0 0 0 .208 3.159l.12 1.336.029.329.083.749a90.88 90.88 0 0 0 .475 3.596l.15 1.015.566 3.231s-.191-1.401-.072-3.462c.03-.474.074-.981.138-1.521.147-1.17.397-2.46.823-3.791a20.02 20.02 0 0 1 .349-.983c.053-.144.116-.285.175-.429a16.35 16.35 0 0 1 .877-1.826l.247 1.292.027.14-.002.196-.009.86.002 2.209.054 2.606c.118 3.876.452 8.554 1.289 12.54 0 0 .158-7.247 1.385-8.068 0 0 2.145 13.423 4.136 18.489.258.656.515 1.179.763 1.507l-.051-1.331-.283-7.46.04-.767c1.492 3.056 3.191 6.198 5.108 9.426l1.641 2.697c-3.689 3.243-7.099 7.832-9.547 13.32a44.2 44.2 0 0 0-1.097 2.697 45.3 45.3 0 0 0-.549 1.598 21.57 21.57 0 0 0-.16.51l-.341 1.144-.161.591a35.86 35.86 0 0 0-.292 1.162l-.129.548c-.127.559-.245 1.121-.35 1.691l-.008.053a44.62 44.62 0 0 0-.275 1.727l-.071.562a37.83 37.83 0 0 0-.14 1.247c-.023.212-.04.424-.058.637a38.83 38.83 0 0 0-.084 1.27l-.03.577a41.43 41.43 0 0 0-.038 1.852l.002.08c0 .478.014.956.032 1.436s.049.97.084 1.459l.013.196.007.122c.047.593.11 1.186.183 1.784.023.19.056.379.081.57l.182 1.232.121.687.221 1.133.16.731.268 1.109.196.744.321 1.117.225.736.39 1.16.244.695a40.72 40.72 0 0 0 .498 1.286l.228.575a49.58 49.58 0 0 0 1.743 3.74l.299.556.722 1.313.406.687.72 1.186.47.735.76 1.138.525.755a38.25 38.25 0 0 0 .827 1.131l.557.744.922 1.158.57.707a60.28 60.28 0 0 0 1.088 1.259l.515.594a69.16 69.16 0 0 0 1.717 1.843l-.002-.003c-.003-.006-.346-.499-.812-1.364l-.017-.029a21.68 21.68 0 0 1-.271-.527l-.03-.053a24.17 24.17 0 0 1-.3-.629l-.021-.039-.328-.75c-.875-2.102-1.724-5.019-1.614-8.274l1.025 1.335 1.497 2.947.62 1.168a108.77 108.77 0 0 0 2.972 5.16c1.319 2.135 2.767 4.272 4.264 6.117l-.002-.002c-.007-.013-1.742-3.635-2.323-6.012-.163-.668-.241-1.242-.156-1.603l.42.432.421.432 1.017 1.346.198.259.611.801.011.016.78 1.01c2.442 3.138 5.691 7.15 8.008 9.354.773.735 1.441 1.27 1.942 1.501l-3.343-5.989c7.566 6.157 38.786 14.062 69.542 5.238 3.712-1.062 7.421-2.375 11.074-3.965a85.21 85.21 0 0 0 6.557-3.167l.314-.175a85.89 85.89 0 0 0 4.505-2.653l.033-.021a85.04 85.04 0 0 0 3.325-2.207c1.837-1.295 3.657-2.658 5.43-4.14l.005-.002.007-.006c.102-.09.207-.178.314-.268a73.86 73.86 0 0 0 4.93-4.722 74.25 74.25 0 0 0 5.472-6.469l.121-.156 1.175-1.599.107-.155.357-.533 1.545-2.284.356-.549.746-1.2.554-.93.595-1.006 1.001-1.806.37-.702.714-1.381.316-.636.094-.2.821-1.706.049-.12c.99-.924 1.759-1.802 2.377-2.642l.265-.358c1.371-1.979 1.82-3.729 1.845-5.3M65.354 189.424l-.075-.417.024-.009-.828-6.09-.049-.438c-.342.107-.728.561-1.117 1.179l-.43.752c-1.039 1.952-1.975 4.66-1.975 4.66l.283-2.786.042-.328.392-2.891.051-.346.525-3.202.071-.401.014-.069.064-.362.096-.535.453-2.377.394-1.937.04-.196.058-.274.056-.274.007-.032.098-.452.009-.04.084-.397.135-.619.013-.055.102-.465.13-.582.002-.006.002-.005.066-.29.005-.017.058-.255.116-.499.029-.119.011-.043.033-.14.023-.097.005-.014-.016.013-.21.191-.548.508-.191.21-.588.723-.098.123-.646.997v.001l-.026.045-.001.002-.082.152-.136.253-.344.637-.006.008-.003.007-.006.018-.041.081-.038.081-.454 1.015c-.397.941-.704 1.837-.935 2.586l-.216.741-.269 1.046-.002.016-.03.124v-.002.002l.011-.145.072-.859.148-1.799.201-1.492.07-.466.1-.687.12-.632.002-.016v-.001l.045-.234.014-.064.145-.772.056-.298.035-.177.007-.033.054-.251.071-.306.264-1.115.015-.062.196-.825.002-.013.007-.018.022-.08.467-1.658.084-.304.089-.312.853-2.64.039-.108.797-2.166.031-.081.374-.922.021-.046.564-1.371.001-.005v-.002l.003-.006.022-.056.355-.783.003-.007.025-.054v-.001l.21-.47.339-.756.102-.219.002-.01 1.949-3.501.239-.442.041-.071.099-.18.634-1.158.893-1.609 1.36-2.429.305-.545.014-.026h-.002l-.007-.006-.018-.014-1.641-1.049c-1.111-.669-2.725-1.577-4.689-2.488l-1.985-.868-2.611-.977-.716-.215-2.338-.645-.046-.01-1.654-.372-1.331-.227-.651-.066-.64-.065-1.816-.096-.884-.009c-1.32.03-2.616.146-3.889.328l-.232.035c-2.295.344-4.508.921-6.616 1.717l-2.114.878-.587.283-.712.348a32.49 32.49 0 0 0-5.838 3.863l-.064.054a32.39 32.39 0 0 0-4.253 4.252l-1.065 1.352-1.171 1.667a32.73 32.73 0 0 0-1.918 3.351l-.586 1.232-.098.239a32.42 32.42 0 0 0-2.424 8.636l-.196 1.797-.017.226-.074 1.442-.007 1.784.014.283.067 1.386.026.242.029.319.107 1.08.015.082v.023l.002.003.081.54.145.968.138.692.183.896.18.72.04.168.065.25.049.191.061.231.223.742.243.781.267.753.074.201.196.54.312.76.292.693.18.385.178.382.315.652.408.773.325.604.462.783.332.551.516.781.341.509.57.785.342.459.629.788.339.412.687.783.332.365.747.775.323.324.808.765.309.281.873.749.29.242.938.734.272.204 1.001.707.251.171 1.063.683.228.138 1.131.651.196.11 1.195.614.172.081 1.255.574.15.065 1.311.522.123.045 1.371.473.094.031.683.196.744.217.07.019 1.481.35.042.013 1.53.284.024.008a32.77 32.77 0 0 0 4.813.413l1.169.007 1.602-.091 2.235-.26 1.983-.353 3.021-.747c2.935-.853 5.528-1.99 7.078-3.146l-1.883-9.105-.274-1.507"/><path d="M199.057 80.92l.005.002-.013-.009z"/></g><path d="M138.63 19.778l-.373-4.575 2.29-5.069.905-.203c-1.5-.696-3.282-1.193-5.345-1.45-4.132-.521-9.378-.042-15.354 1.502-5.977 1.534-12.678 4.115-19.785 7.654-14.215 7.074-30.039 17.975-45.267 31.867-5.313 4.845-10.268 9.795-14.823 14.761-4.425 4.817-8.471 9.649-12.102 14.415-7.373 9.677-13.024 19.089-16.633 27.484-2.41 5.594-3.901 10.734-4.446 15.133-.402 3.198-.297 5.995.239 8.306a14.23 14.23 0 0 0 .662 2.077c.539 1.365 1.247 2.542 2.161 3.551l9.213 9.652.988 1.033.065-.07a40.37 40.37 0 0 1 .861-.967l.078-.084c.106-.114.217-.221.323-.331l.841-.86c.177-.175.356-.342.537-.513l.524-.5c.081-.073.163-.14.245-.213.187-.17.381-.337.575-.505l.819-.691.49-.395.072-.056.885-.676.565-.414.936-.647.569-.378c.323-.21.653-.414.983-.615l.571-.344c.346-.203.696-.395 1.046-.587l.558-.304.21-.111.013-.038c2.206-6.107 5.51-12.736 9.793-19.643 5.262-8.484 11.985-17.382 19.968-26.243 5.02-5.575 10.532-11.135 16.483-16.564 7.699-7.018 15.548-13.28 23.29-18.705 5.215-3.656 10.375-6.91 15.412-9.766l1.432-.813a149.26 149.26 0 0 1 3.994-2.129 136.16 136.16 0 0 1 8.46-4.029l-1.351-1.622-.224-.267-11.188-13.454.087-8.197-.105-.119 6.723-2.005z" fill="#3478ad"/><path d="M249.088 211.659l.003-.001s.233-1.739-.686-3.294l-.021-.042a3.43 3.43 0 0 0-.169-.26l-.061-.09a4.25 4.25 0 0 0-.348-.397 4.17 4.17 0 0 0-.8-.655 4.84 4.84 0 0 0-.529-.299c-.522-.249-1.146-.438-1.888-.547-.542-.079-1.162-.102-1.837-.081l-.837.042-.134.008.049.179.131.492.067.269.329 1.426c-.001.005-.034.112-.121.314l-.046.107c-.338.785-1.257 2.6-3.304 4.959l-1.149 1.252c-5.711 5.9-18.069 14.302-44.07 19.002-8.823 1.244-16.957 1.313-23.905.449-10.274-1.278-17.972-4.56-21.553-8.973a16.74 16.74 0 0 1-.865-1.163 16.82 16.82 0 0 1-.571-.884c-.064-.11-.122-.221-.185-.331-1.539-2.721-2.209-5.687-2.171-8.559.049-3.488 1.137-6.825 2.979-9.39 1.494-2.08 3.481-3.652 5.804-4.378a9.9 9.9 0 0 1 3.637-.428 21.29 21.29 0 0 1 1.025.107l3.511.464.487.062c4.879.606 12.65 1.339 22.047.766 17.095-1.041 39.596-6.421 60.029-24.845l.056-.072v-.032c.068-1.544-.138-4.33-2.088-6.498a7.8 7.8 0 0 0-1.19-1.07c-.259-.19-.527-.371-.827-.54s-.574-.335-.839-.503c-.362-.227-.703-.453-1.006-.678l-.045-.065c-.138-.216-.285-.426-.426-.642-5.301-8.027-12.602-12.686-15.513-14.821-1.373-1.009-2.248-1.469-2.248-1.469-6.304-3.841-7.229-5.115-6.64-15.545l1.037-15.385a54.19 54.19 0 0 0 .097-2.511l.008-.574a46.32 46.32 0 0 0-.032-2.239l-.007-.207-.017-.221a53.74 53.74 0 0 0-.119-1.652l-.069-.703a30.91 30.91 0 0 0-.224-1.665c-.045-.274-.098-.538-.148-.805a29.26 29.26 0 0 0-.179-.881l-.194-.841-.002-.001.002-.003v.003c-.084-.337-.183-.655-.275-.974-.034-.116-.062-.237-.099-.35l-.107-.313-.035-.106-.107-.306-.003-.021-.268-.72-.029-.078-.091-.221-.11-.273-.025-.053v-.007a18.78 18.78 0 0 0-.597-1.273l-.167-.297a20.25 20.25 0 0 0-.734-1.121l-.1-.15-.124-.166a19.93 19.93 0 0 0-.54-.711l-.247-.309a20.83 20.83 0 0 0-.726-.823l-.001-.002a16.23 16.23 0 0 0-.9-.885 12.6 12.6 0 0 0-1.032-.581c-.112-.058-.225-.102-.339-.152a9.27 9.27 0 0 0-.682-.292c-.132-.05-.261-.09-.393-.135-.203-.065-.411-.131-.615-.185-.134-.033-.272-.062-.406-.089a9.16 9.16 0 0 0-.595-.106 8.04 8.04 0 0 0-.406-.046c-.196-.019-.394-.029-.59-.037-.134-.003-.266-.007-.395-.003a9.32 9.32 0 0 0-.604.03c-.123.009-.248.019-.37.033l-.271.04c-.122.022-.245.035-.372.059l-.323.058a10.59 10.59 0 0 0-.744.187l-.217.056a15.17 15.17 0 0 0-1.942.735l-.215.102a20.56 20.56 0 0 0-.751.364l-.288.155a22.5 22.5 0 0 0-.679.37l-.308.18-.669.4-.304.187-.7.446-.258.169-.792.527-.158.106-.9.618-.01.009-.047.029h.003l-1.69 1.175-1.445.991-.234.161-1.482.969-.25.156c-.5.311-1.001.613-1.507.901l-.266.147a30.19 30.19 0 0 1-1.547.809l-.26.122a21.15 21.15 0 0 1-1.611.691l-.225.086a19.39 19.39 0 0 1-1.712.547l-.152.035a16.16 16.16 0 0 1-1.856.37c-1.058.143-2.116.19-3.178.194a34.36 34.36 0 0 1-5.212-.392 57.76 57.76 0 0 1-1.752-.298l-.62-.111c-1.521-.296-3.051-.648-4.591-1.02l-1.943-.468-3.152-.741-.622-.146.01-.001-.448-.094-.7-.154-.671-.134-.116-.024-.078-.015-.616-.122-1.442-.256c-.143-.025-.287-.043-.428-.065l-1.072-.159c-.18-.026-.364-.043-.542-.065l-.04-.005-.936-.107-.622-.057-.283-.021-.643-.046-.618-.034-.978-.027-.295-.005-.274-.005a29.5 29.5 0 0 0-1.225.027c-.106.003-.218.002-.327.01a25.25 25.25 0 0 0-1.569.118l-.41.048c-.339.04-.679.086-1.021.138l-.152.022c-.186.027-.376.063-.561.096l-1.046.207-.604.14c-.345.082-.693.175-1.041.273l-.595.171c-.376.114-.75.242-1.127.376-.171.059-.341.113-.513.18a26.51 26.51 0 0 0-1.652.67c-4.333 2.495-8.054 5.899-11.014 9.871-.985 1.322-1.887 2.709-2.698 4.145-.859 1.521-1.603 3.1-2.25 4.717a38.25 38.25 0 0 0-.541 1.425 39 39 0 0 0-.783 2.444c-.024.088-.043.178-.067.267a36.97 36.97 0 0 0-.653 2.81 36.45 36.45 0 0 0-.448 2.975c-.059.539-.114 1.077-.15 1.617-.094 1.451-.083 2.909.005 4.362.006.131.017.265.026.395.025.372.038.741.078 1.113.107 1.034.255 2.069.462 3.095.073.379.176.736.267 1.102l.257 1.051v-.002c.723 2.621 1.768 4.982 3.007 7.127 4.721 8.156 12.483 13.033 18.107 15.651a68.71 68.71 0 0 0 6.843 2.584s-.112.07-.285.187a49.36 49.36 0 0 0-1.453.389 58.99 58.99 0 0 0-2.821.873 60.44 60.44 0 0 0-3.844 1.44c-3.651 1.513-7.794 3.664-11.466 6.634a35.03 35.03 0 0 0-1.354 1.151c-.753.678-1.472 1.401-2.162 2.158-.079.086-.163.168-.239.255-.105.116-.208.237-.311.355a32.47 32.47 0 0 0-.769.934l-.3.382c-.33.436-.652.878-.957 1.337-.299.45-.587.914-.859 1.386-2.176 3.798-3.41 8.346-3.031 13.768l.011-.056.007-.04.04-.202.011-.045c.016-.082.04-.179.065-.287l.015-.067.105-.419.027-.1.148-.535.002-.001c.054-.19.121-.394.187-.605l.043-.129a18.92 18.92 0 0 1 .234-.671l.045-.111a15.35 15.35 0 0 1 .263-.676l.045-.107a27.31 27.31 0 0 1 .335-.771l.076-.163a20.57 20.57 0 0 1 .401-.815v-.001c.006-.011.013-.022.018-.032a21.25 21.25 0 0 1 .715-1.251c.097-.16.191-.319.298-.478l.082-.134.002-.003c.22-.33.452-.66.702-.986.203-.267.419-.532.642-.796.07-.082.145-.164.219-.247a17.88 17.88 0 0 1 .555-.596l.235-.237c.263-.257.532-.508.817-.751l.024-.023v.001-.001s-4.939 11.175-2.791 20.035c0 0-.002-.027-.002-.074v-.055c-.002-.049-.002-.106-.002-.182 0-.015 0-.032-.001-.048l.006-.322a.37.37 0 0 1 .002-.049c0-.131.009-.277.016-.441 0-.015.002-.032.002-.047l.034-.547a.33.33 0 0 1 .003-.049l.058-.632.007-.055c.022-.223.054-.453.087-.696.002-.022.007-.043.009-.065a22.03 22.03 0 0 1 .131-.799l.011-.065.026-.138v-.006a16.5 16.5 0 0 1 .215-.946c.006-.021.01-.042.015-.064a23.59 23.59 0 0 1 .275-.948l.094-.292.069-.203v-.003a14.42 14.42 0 0 1 .307-.783l.017-.042.001-.002c.154-.364.335-.717.526-1.067a6.29 6.29 0 0 1 .158-.275 10.27 10.27 0 0 1 .663-1.006l.01-.016v.002-.002h.001s-.283 2.751-.21 6.026a45.77 45.77 0 0 0 .071 1.578l.076 1.069a43.2 43.2 0 0 1 1.797-9.906c-.936 3.085-1.579 6.389-1.796 9.91v.001a44.05 44.05 0 0 0 .121 6.99c.393 4.026 1.349 8.285 3.035 12.768 0 0-1.545-5.156.68-10.313a42.4 42.4 0 0 0 .64 1.418 94.54 94.54 0 0 0 .941 6.094c.43 3.986 2.337 15.942 10.46 24.352 0 0-3.07-3.983-2.593-9.17.321.682.638 1.296.941 1.826 1.389 2.601 4.153 7.445 7.166 10.802 0 0-2.444-4.734-1.875-5.755 0 0 7.971 9.912 10.507 10.879l-3.334-5.528-.075-.162c11.583 8.399 27.475 11.517 47.131 6.044 3.378-.943 6.867-2.137 10.466-3.605a85.21 85.21 0 0 0 6.557-3.167l.314-.175a85.89 85.89 0 0 0 4.505-2.653l.033-.021a85.04 85.04 0 0 0 3.325-2.207c1.837-1.295 3.657-2.658 5.43-4.14l.005-.002.007-.006c.102-.09.207-.178.314-.268a73.86 73.86 0 0 0 4.93-4.722 74.25 74.25 0 0 0 5.472-6.469l.121-.156 1.175-1.599.107-.155.357-.533 1.545-2.284.356-.549.746-1.2.554-.93.595-1.006 1.001-1.806.37-.702.714-1.381.316-.636.094-.2.821-1.706.049-.12c.99-.924 1.759-1.802 2.377-2.642l.265-.358c1.371-1.979 1.82-3.729 1.845-5.3M64.425 182.47c-.342.107-.728.561-1.117 1.179l-.43.752c-1.039 1.952-1.975 4.66-1.975 4.66l.283-2.786.042-.328.392-2.891.051-.346.525-3.202.071-.401.014-.069.064-.362.096-.535.453-2.377.394-1.937.04-.196.058-.274.056-.274.007-.032.098-.452.009-.04.084-.397.135-.619.013-.055.102-.465.13-.582.002-.006.002-.005.066-.29.005-.017.058-.255.116-.499.029-.119.011-.043.033-.14.023-.097.005-.014-.016.013-.21.191-.548.508-.191.21-.588.723-.098.123-.646.997v.001l-.026.045-.001.002-.082.152-.136.253-.344.637-.006.008-.003.007-.006.018-.041.081-.038.081-.454 1.015c-.397.941-.704 1.837-.935 2.586l-.216.741-.269 1.046-.002.016-.03.124v-.002.002l.011-.145.072-.859.148-1.799.201-1.492.07-.466.1-.687.12-.632.002-.016v-.001l.045-.234.014-.064.145-.772.056-.298.035-.177.007-.033.054-.251.071-.306.264-1.115.015-.062.196-.825.002-.013.007-.018.022-.08.467-1.658.084-.304.089-.312.853-2.64.039-.108.797-2.166.031-.081.374-.922.021-.046.564-1.371.001-.005v-.002l.003-.006.022-.056.355-.783.003-.007.025-.054v-.001l.21-.47.339-.756.102-.219-.492-.247-.094-.047-.175-.088a18.48 18.48 0 0 0-3.355-1.223l-.185-.046a17.84 17.84 0 0 0-2.288-.42l-1.362-.111-1.149-.013c-.58.013-1.151.062-1.712.123l-.526.076-.83.146-.328.061-.578.131-1.11.312-.505.155-1.456.574-.55.268-.645.331-.22.113-.692.408-.629.406-.735.509-.435.342-1.12.974-.547.533-.918.973-.147.169-.438.566-.023.027-.018.025-.297.381-.038.051-.038.051-.002.005-.002.003c-.586.82-1.099 1.692-1.545 2.6l-.185.396-.566 1.362-.205.548-.002.002v.001l-.002.003-.412 1.442-.045.183-.043.232-.006.021-.215 1.074-.07.54-.008.051-.062.58-.05.441-.047 1.73.094 1.338.003.025.015.207.103.731a17.91 17.91 0 0 0 .566 2.587 17.66 17.66 0 0 0 .669 1.865c.47 1.114 1.055 2.163 1.723 3.15 1.405 2.081 3.211 3.865 5.321 5.224a18.32 18.32 0 0 0 3.855 1.877c1.311.464 2.678.8 4.104.957l.97.08 1.467.042c.457-.01.901-.066 1.349-.11l.773-.062c.645-.09 1.278-.221 1.9-.377l.14-.031c.259-.067.5-.162.751-.24a17.92 17.92 0 0 0 2.278-.865l.16-.071.616-.274.024-.009-.828-6.09-.049-.438" fill="#fce9c9"/><path d="M141.497 21.245l.341.174-.006-.046z" fill="#4d94c3"/><path d="M242.03 206.982l-.067-.269-.131-.492c-.559-1.816-1.268-3.235-1.9-4.247-.807-1.306-1.476-1.951-1.476-1.951l.337-1.351.283-1.694c.486-4.141-.622-7.363-1.509-9.181l-.397-.759-1.933 1.34c-12.275 8.311-26.092 13.644-41.051 15.936-10.309 1.58-21.155 1.727-32.431.355l.196.057s-6.796.93-8.64 7.45l.115.066-.562 4.373c.199 5.922 2.906 9.628 5.987 11.578 3.202 1.222 7.069 2.153 11.364 2.686 7.473.929 16.052.684 24.808-.707l.045-.007.045-.006c11.646-1.562 28.085-7.78 39.836-15.807 2.677-1.829 5.112-3.748 7.191-5.732l.078-.075.142-.137a42.76 42.76 0 0 0-.329-1.426" fill="#fff"/><g fill="#efcfa5"><path d="M219.813 150.548c-6.304-3.841-7.229-5.115-6.64-15.545l1.037-15.385a54.19 54.19 0 0 0 .097-2.511l.008-.574a46.32 46.32 0 0 0-.032-2.239l-.007-.207-.017-.221a53.74 53.74 0 0 0-.119-1.652l-.069-.703a30.91 30.91 0 0 0-.224-1.665c-.045-.274-.098-.538-.148-.805a29.26 29.26 0 0 0-.179-.881l-.194-.841-.002-.001.002-.003a16.11 16.11 0 0 0-3.217-3.545l-.245-.183-.049-.038-.185-.138-.063-.047c-.18-.139-.37-.275-.557-.4-.202-.134-.403-.265-.609-.388-1.864-1.134-3.942-1.846-6.166-2.176-1.228-.18-2.501-.244-3.806-.194a22.52 22.52 0 0 0-1.837.148 28.18 28.18 0 0 0-4.924 1.04l-1.69 1.175-1.445.991-.234.161-1.482.969-.25.156c-.5.311-1.001.613-1.507.901l-.266.147a30.19 30.19 0 0 1-1.547.809l-.26.122a21.15 21.15 0 0 1-1.611.691l-.225.086a19.39 19.39 0 0 1-1.712.547l-.152.035a16.16 16.16 0 0 1-1.856.37c-1.058.143-2.116.19-3.178.194a34.36 34.36 0 0 1-5.212-.392 57.76 57.76 0 0 1-1.752-.298l-.62-.111c-1.521-.296-3.051-.648-4.591-1.02l-1.943-.468-3.152-.741-.622-.146c-.885.048-1.773.135-2.665.247l-.194.024c-2.587.339-5.189.956-7.76 1.845l-.426.143c-.402.143-.8.299-1.2.457-.535.212-1.07.433-1.601.668-3.724 1.644-7.341 3.881-10.703 6.723a46.75 46.75 0 0 0-3.829 3.638 45.57 45.57 0 0 0-4.867 6.175l-.232.362c-.757 1.172-1.45 2.368-2.077 3.584l-.662 1.307-.042.086c-.676 1.432-1.262 2.886-1.766 4.354-.029.088-.054.176-.079.263-.072.213-.127.428-.194.64a45.48 45.48 0 0 0-.595 2.053c-.183.711-.356 1.425-.499 2.138l-.089.461-.229 1.308c-.243 1.604-.377 3.205-.411 4.795l-.022 1.199c.723 2.621 1.768 4.982 3.007 7.127 4.721 8.156 12.483 13.033 18.107 15.651a68.71 68.71 0 0 0 6.843 2.584l.061.103.002.001.01-.005.153-.118.918-.69c.11-.086.223-.166.335-.248l.981-.703.341-.235 1.032-.703.353-.232 1.086-.702.365-.228 1.134-.693.396-.236 1.17-.676.43-.24a55.37 55.37 0 0 1 1.196-.655l.485-.257 1.216-.63.53-.266 1.239-.607.597-.282 1.244-.575c.218-.102.446-.199.671-.299l1.244-.541.751-.317 1.24-.509.845-.333 1.226-.473.938-.349 1.209-.44 1.048-.363 1.186-.403 1.16-.377 1.154-.369 1.296-.394 1.102-.325 1.429-.404.714-.2c1.867-4.699 7.407-16.352 16.898-17.627 1.021-.147 1.942-.201 2.814-.21.218-.002.452-.018.66-.014-.11-.676-.196-1.38-.241-2.112-.297-5.021 1.247-9.195 3.447-9.327 1.705-.138 3.06 2.351 3.291 3.222.647 1.526 1.102 3.476 1.233 5.64.116 1.976-.066 3.801-.443 5.321.192.198.349.417.522.627 2.174 2.698 2.541 6.44 2.452 9.091l2.58-.234.662-.062.137-.013c.126-.013.251-.019.376-.03l3.261-.251.049-.002 7.699-.434c-1.373-1.009-2.248-1.469-2.248-1.469m23.882 70.292c-4.152 3.698-8.5 6.666-12.813 9.049a76.07 76.07 0 0 1-6.399 3.132c-4.683 2.04-9.176 3.458-13.134 4.423-8.735 2.128-14.895 2.133-14.895 2.133 4.777 2.642 10.823 2.667 14.971 2.248 2.854-.284 4.817-.775 4.817-.775-.089 1.754-.308 3.367-.621 4.873a25.85 25.85 0 0 1-1.391 4.566l-.045.119-.005.008c-.711 1.712-1.568 3.215-2.522 4.539l-.309.434.314-.175a85.89 85.89 0 0 0 4.505-2.653l.033-.021a85.04 85.04 0 0 0 3.325-2.207c1.837-1.295 3.657-2.658 5.43-4.14l.005-.002.007-.006c.102-.09.207-.178.314-.268a73.86 73.86 0 0 0 4.93-4.722 74.25 74.25 0 0 0 5.472-6.469l.121-.156 1.175-1.599.107-.155.357-.533 1.545-2.284.356-.549.746-1.2.554-.93.595-1.006 1.001-1.806.37-.702.714-1.381.316-.636.094-.2.821-1.706-.859.76m-104.081-45.986l-3.844 1.44c-3.651 1.513-7.794 3.664-11.466 6.634a35.03 35.03 0 0 0-1.354 1.151c-.753.678-1.472 1.401-2.162 2.158-.079.086-.163.168-.239.255-.105.116-.208.237-.311.355a32.47 32.47 0 0 0-.769.934l-.3.382c-.33.436-.652.878-.957 1.337-.299.45-.587.914-.859 1.386-2.176 3.798-3.41 8.346-3.031 13.768l.011-.056.007-.04.04-.202.011-.045c.016-.082.04-.179.065-.287l.015-.067.105-.419.027-.1.148-.535.002-.001c.054-.19.121-.394.187-.605l.043-.129a18.92 18.92 0 0 1 .234-.671l.045-.111a15.35 15.35 0 0 1 .263-.676l.045-.107a27.31 27.31 0 0 1 .335-.771l.076-.163a20.57 20.57 0 0 1 .401-.815v-.001c.006-.011.013-.022.018-.032a21.25 21.25 0 0 1 .715-1.251c.097-.16.191-.319.298-.478l.082-.134.002-.003c.22-.33.452-.66.702-.986.203-.267.419-.532.642-.796.07-.082.145-.164.219-.247a17.88 17.88 0 0 1 .555-.596l.235-.237c.263-.257.532-.508.817-.751l.024-.023v.001-.001s-4.939 11.175-2.791 20.035c0 0-.002-.027-.002-.074v-.055c-.002-.049-.002-.106-.002-.182 0-.015 0-.032-.001-.048l.006-.322c0-.016 0-.031.002-.049 0-.131.009-.277.016-.441 0-.015.002-.032.002-.047l.034-.547a.33.33 0 0 1 .003-.049l.058-.632.007-.055c.022-.223.054-.453.087-.696.002-.022.007-.043.009-.065a22.03 22.03 0 0 1 .131-.799l.011-.065.026-.138v-.006a16.5 16.5 0 0 1 .215-.946c.006-.021.01-.042.015-.064a23.59 23.59 0 0 1 .275-.948l.094-.292.069-.203v-.003a14.42 14.42 0 0 1 .307-.783l.017-.042.001-.002c.154-.364.335-.717.526-1.067a6.29 6.29 0 0 1 .158-.275 10.27 10.27 0 0 1 .663-1.006l.01-.016v.002-.002h.001s-.283 2.751-.21 6.026a45.77 45.77 0 0 0 .071 1.578l.076 1.069a43.2 43.2 0 0 1 1.797-9.906 46.76 46.76 0 0 1 .849-2.493l.128-.353a49.03 49.03 0 0 1 .925-2.263l.185-.414c.33-.731.671-1.448 1.029-2.147l.169-.322a52.08 52.08 0 0 1 2.417-4.164l.185-.289c.322-.492.652-.966.982-1.436l.256-.379.236-.33c.42-.58.841-1.145 1.267-1.692l.203-.257a58.19 58.19 0 0 1 1.329-1.633l.024-.029a62.28 62.28 0 0 1 1.67-1.894l1.207-1.273.459-.46a61.63 61.63 0 0 1 2.727-2.589c2.569-2.299 4.569-3.72 5.266-4.191a49.36 49.36 0 0 0-1.453.389 58.99 58.99 0 0 0-2.821.873"/><path d="M205.308 150.112s-.027-.285-.129-.716c-.402-1.634-2.016-5.488-8.374-4.877-6.647.64-8.879 6.004-9.452 7.832-.118.379-.169.618-.169.618l.18.154c.843-.716 2.451-.631 3.909.295a5.13 5.13 0 0 1 1.561 1.521v.002c.562.865.718 1.798.321 2.491-.084.148-.191.274-.313.385a9.61 9.61 0 0 0 .687.224c1.847.545 6.969 1.619 9.741-1.96.134-.172.269-.332.392-.524-.546-.279-.851-1.079-.852-2.028a4.81 4.81 0 0 1 .205-1.433c.454-1.504 1.483-2.392 2.292-1.983m-32.951 48.824a257.82 257.82 0 0 1-10.982 2.018l.487.062c4.879.606 12.65 1.339 22.047.766 17.095-1.041 39.596-6.421 60.029-24.845l.056-.072v-.032c.068-1.544-.138-4.33-2.088-6.498a7.8 7.8 0 0 0-1.19-1.07c-.076-.045-.147-.095-.226-.139a17.81 17.81 0 0 1-1.44-.904c-.362-.227-.703-.453-1.006-.678l-.045-.065c-1.256 1.806-2.711 3.524-4.342 5.16a48.33 48.33 0 0 1-1.808 1.692c-5.638 5.078-12.921 9.307-20.784 12.79-13.066 5.787-27.67 9.542-38.709 11.815m-108.21-29.776l-.548.508-.191.21-.588.723-.098.123-.646.997v.001l-.026.045-.001.002-.082.152-.136.253-.344.637-.006.008-.003.007-.006.018-.041.081-.038.081-.454 1.015c-.397.941-.704 1.837-.935 2.586l-.216.741-.269 1.046-.002.016-.03.124v-.002.002l.011-.145.072-.859.148-1.799.201-1.492.07-.466.1-.687.12-.632.002-.016v-.001l.045-.234.014-.064.145-.772.056-.298.035-.177.007-.033.054-.251.071-.306.264-1.115.015-.062.196-.825.002-.013.007-.018.022-.08.467-1.658.084-.304.089-.312.853-2.64.039-.108.797-2.166.031-.081.374-.922.021-.046.564-1.371.001-.005v-.002l.003-.006.022-.056.355-.783.003-.007.025-.054v-.001l.21-.47.339-.756.102-.219-.492-.247-.094-.047-.175-.088a18.48 18.48 0 0 0-3.355-1.223l-.185-.046a17.84 17.84 0 0 0-2.288-.42l-1.362-.111-1.149-.013c-.58.013-1.151.062-1.712.123l-.526.076-.83.146-.328.061-.578.131-1.11.312-.505.155-1.456.574-.55.269-.645.33-.22.113-.692.408-.629.406-.735.509-.435.342-1.12.974-.547.533-.918.973-.147.169-.438.566-.023.027-.018.025-.297.382-.038.05-.038.051-.002.005-.002.003c-.586.823-1.099 1.694-1.545 2.604l-.183.392-.569 1.362-.205.548-.002.002v.001l.112.35.392 1.2.047.134.051.135.442 1.155a31.93 31.93 0 0 0 1.429 3.068l.216.398.051.095.067.113 1.048 1.714 1.313 1.802.19.231.136.156.202.227-.114-.609a24.89 24.89 0 0 1-.489-4.307l-.001-.083-.003-.163.07-2.668h.001l.292.977.47 1.402.056.162.023.058a30.99 30.99 0 0 0 2.279 4.843c.906 1.561 1.736 2.666 2.232 3.273l.257.306.218.247a24.39 24.39 0 0 1-.597-4.58l-.03-1.506.094-1.873v.002-.002a31.62 31.62 0 0 0 .933 2.944l.024.071c1.218 3.301 2.722 5.728 3.759 7.166l.119.159.483.635.271.332.237.28.123.142-.042-.216-.134-.646a24.28 24.28 0 0 1-.321-2.304l-.114-1.516-.009-1.417.007-.253.026-.727.009-.148.009-.107.168-1.829v.002-.002l.37 1.16.297.829.022.056.033.095.061.167.379.95.743 1.638.916 1.747.507.854.606.945.501.717.119.162.412.546.259.323.414.483.038.04.13.089.042-.328.392-2.891.051-.346.525-3.202.071-.401.014-.069.064-.362.096-.535.453-2.377.394-1.937.04-.196.058-.274.056-.274.007-.032.098-.452.009-.04.084-.397.135-.619.013-.055.102-.465.13-.582.002-.006.002-.005.066-.29.005-.017.058-.255.116-.499.029-.119.011-.043.033-.14.023-.097.005-.014-.016.013zm138.358 47.761l4.105-1.483c2.183-.929 3.355-1.556 3.282-1.788s-1.392-.058-3.71.466l-4.185.871c-.804.193-1.692.304-2.612.482l-2.932.475-6.821.837-3.761.307-4.014.199c-5.488.161-11.546-.088-17.709-1.222-3.25-.572-7.594-2.048-10.719-3.822l-.115-.066c1.844-6.52 8.64-7.45 8.64-7.45l-.196-.057-.342-.039-2.603-.341-1.393-.184a17.12 17.12 0 0 0-.807-.086c-4.094-.281-6.337 3.186-7.113 4.689-.111.217-.212.44-.315.667a13.53 13.53 0 0 0-1.089 4.543c-.202 3.064.587 6.429 2.935 9.293 1.565 1.932 4.29 3.635 7.824 4.982-3.081-1.95-5.788-5.656-5.987-11.578 3.49 1.5 7.557 2.418 10.612 2.961 6.543 1.206 12.857 1.349 18.533 1.001l4.139-.357 3.907-.506c2.456-.414 4.722-.815 6.85-1.284 1.061-.199 2.045-.49 2.976-.743.932-.271 1.815-.474 2.622-.766"/></g><g fill="#59473d"><path d="M197.075 140.611c3.418.08 5.739 1.164 7.287 2.743.377-1.522.562-3.346.441-5.322-.131-2.162-.583-4.112-1.231-5.641-.229-.869-1.587-3.359-3.293-3.222-2.201.134-3.74 4.309-3.443 9.329a19.98 19.98 0 0 0 .239 2.113m5.774 12.945c.003.95.307 1.749.852 2.028.817.409 1.837-.484 2.29-1.989.042-.131.066-.263.097-.392v-.003c.29-1.367-.006-2.689-.742-3.059-.809-.411-1.837.479-2.29 1.981-.147.49-.209.977-.207 1.434m-15.521 2.423c.362.59.909 1.16 1.606 1.605 1.476.936 3.116 1.015 3.947.261a1.51 1.51 0 0 0 .313-.386c.398-.693.242-1.626-.317-2.492l-.002-.002a5.15 5.15 0 0 0-1.561-1.52c-1.458-.926-3.067-1.012-3.909-.293-.138.119-.263.251-.354.412-.381.671-.24 1.568.277 2.413zm56.665 20.893v-.031l-.096.139.042-.035z"/><path d="M242.22 208.552l-.078.074c-2.079 1.984-4.516 3.904-7.191 5.733-11.751 8.027-28.19 14.246-39.838 15.806l-.045.007-.045.007c-8.757 1.392-17.335 1.636-24.808.707-4.295-.534-8.159-1.465-11.364-2.687-3.531-1.347-6.256-3.049-7.824-4.981-2.348-2.864-3.137-6.229-2.934-9.293.106-1.642.499-3.197 1.09-4.543.1-.227.204-.451.314-.667.776-1.502 3.017-4.97 7.114-4.69a18.26 18.26 0 0 1 .805.087l1.395.184 2.603.34.34.039c11.276 1.372 22.122 1.226 32.431-.354 14.959-2.292 28.778-7.626 41.051-15.936l1.933-1.341 6.728-10.063c-20.419 18.394-42.901 23.767-59.989 24.808-9.397.574-17.167-.159-22.044-.765l-.49-.063-3.508-.462c-.426-.054-.769-.09-1.027-.107a9.86 9.86 0 0 0-3.635.428c-2.326.727-4.312 2.297-5.804 4.378-1.844 2.565-2.93 5.901-2.981 9.39-.035 2.871.632 5.838 2.174 8.559l.184.332c.178.298.37.591.57.88.271.395.555.785.868 1.166 3.579 4.413 11.278 7.696 21.551 8.973 6.95.864 15.085.795 23.908-.45 26-4.699 38.36-13.101 44.068-19.002.417-.43.8-.849 1.15-1.251 2.046-2.36 2.967-4.175 3.303-4.959l.047-.107c.086-.203.12-.311.121-.315z"/></g><path d="M159.478 118.386c-.82-.446-1.715-.765-2.618-.989-.597-.147-1.198-.252-1.79-.327l-.667-.066c-3.044-.266-5.675.249-5.675.249l-1.628.435c-4.134 1.254-7.012 3.407-9.024 5.891-1.628 2.009-2.686 4.237-3.362 6.385-.061.19-.114.378-.168.565a27.43 27.43 0 0 0-.412 1.643 27.71 27.71 0 0 0-.571 4.793c-.051 1.804.089 2.966.089 2.966a52.49 52.49 0 0 1 2.248-4.374c1.926-3.354 4.014-6.057 6.124-8.228 4.111-4.229 8.299-6.461 11.544-7.633 3.506-1.267 5.909-1.311 5.909-1.311m49.385-5.887l-.138-.183a7.69 7.69 0 0 0-1.686-1.585c-1.57-1.08-3.737-1.643-6.74-1.027 0 0-3.565.843-5.65 3.175 0 0 6.214-2.654 12.792 2.022a18.08 18.08 0 0 1 1.802 1.475 22.26 22.26 0 0 1 1.834 1.913s-.261-2.866-1.894-5.335a6.8 6.8 0 0 0-.319-.456" fill="#e1b27e"/><path d="M160.229 157.999l7.724-2.041c.481-2.151.599-4.814.259-7.658-.787-6.67-3.796-11.779-6.716-11.418s-4.649 6.06-3.86 12.726c.397 3.358 1.36 6.324 2.593 8.391" fill="#59473d"/><path d="M146.674 8.75l-6.127 1.385 1.286 11.239-16.334-8.314-6.723 2.005.105.119 19.841 22.614.19-.12.256-.16 1.86-1.174.653-.411 2.705-1.633-8.428-9.654 13.637 6.667.051-.029 1.228-.674-1.257-9.737 6.188 7.157.075-.037 1.552-.768.161-.078.25-.126.265-.131.66-.325.131-.063 2.175-1.03z" fill="#face56"/><g fill="#4d94c3"><path d="M140.587 10.491l-.04-.356.04.357z"/><path d="M140.547 10.135l.905-.203c-1.5-.696-3.282-1.193-5.345-1.45-4.132-.521-9.378-.042-15.354 1.502-5.977 1.534-12.678 4.115-19.785 7.654-14.215 7.074-30.039 17.975-45.267 31.867-5.313 4.845-10.268 9.795-14.823 14.761L59.374 86.92c4.995-5.512 10.444-10.993 16.317-16.35 7.852-7.159 15.859-13.547 23.775-19.098 7.671-5.374 15.247-9.936 22.541-13.627l-3.213-14.466.087-8.197-.105-.119 6.723-2.005 13.131 6.719-.373-4.575z"/></g><path d="M140.547 10.135l-2.29 5.069.373 4.575 3.202 1.595zm-4.591 14.511l13.637 6.667-5.209 2.987zm13.66-3.772l1.257 9.737 4.931-2.58z" fill="#141c26"/><path d="M201.211 17.274l2.473-.025c2.295.047 4.45.317 6.493.828l.332.074.025.007.08.017.201.058.185.056-.735-.458c-2.292-.878-4.718-1.451-7.214-1.772-12.378-1.593-26.469 2.914-34.528 6.114l-1.338.561-2.052.888-3.538 1.606-.522.245-2.175 1.03c-.045.022-.087.04-.131.063l-.66.325-.265.131-.25.126-.161.078-1.552.768-.075.037c-.016.009-.032.017-.047.025l-.38.186-.066.032-.283.148-2.397 1.248-1.668.892-.089.049-1.228.674-.051.029-3.98 2.263-.416.239-.352.207c-.11.064-.217.131-.323.195l-.139.083-2.705 1.633-.653.411-1.86 1.174-.256.16-.19.12a225.43 225.43 0 0 0-5.123 3.387 239.41 239.41 0 0 0-8.301 5.908l-1.062.799c-7.159 5.39-14.074 11.173-20.699 17.18-6.995 6.344-13.66 12.937-19.956 19.561-3.41 3.417-6.34 6.479-8.73 9.053-4.796 5.165-7.412 8.358-7.304 8.43.043.047.466-.345 1.215-1.094l-1.848 2.153c10.455-11.147 22.051-22.563 34.502-33.317 7.564-6.527 15.434-12.811 23.565-18.64v.001c3.561-2.556 7.173-5.022 10.83-7.383l3.525-2.239 1.772-1.081 1.004-.613 1.897-1.131 1.862-1.091.977-.561 2.379-1.335 1.425-.785.005-.002 4.52-2.382.379-.192.709-.361.94-.478c.12-.058.235-.121.354-.18l.05-.023.636-.309.134-.064.074-.039 1.968-.954c.119-.055.239-.118.36-.174l.631-.297 2.258-1.057.618-.287.32-.144.636-.285 2.601-1.158 2.302-.973c4.306-1.811 8.355-3.333 12.116-4.543 7.231-2.319 13.474-3.589 18.952-3.825" fill="#fff"/></svg>