<svg xmlns="http://www.w3.org/2000/svg" width="282" height="342" fill="none"><style><![CDATA[.B{fill:#fff}.C{color-interpolation-filters:sRGB}.D{flood-opacity:0}]]></style><g filter="url(#A)"><rect x="11" y="11" width="260" height="320" rx="10" class="B"/><rect x="11" y="11" width="260" height="320" rx="10" fill="url(#F)" fill-opacity=".2"/><rect x="10.5" y="10.5" width="261" height="321" rx="10.5" stroke="#4f46e5"/></g><circle cx="231" cy="290" r="25" fill="#4f46e5"/><path d="M233.352 290.004l7.16-7.16c.312-.312.488-.736.488-1.178s-.176-.866-.488-1.178-.736-.488-1.178-.488-.866.176-1.178.488l-7.16 7.16-7.16-7.135c-.319-.273-.728-.415-1.148-.399s-.816.19-1.113.486-.47.694-.486 1.113.126.829.399 1.148l7.143 7.16-7.143 7.16c-.312.312-.488.736-.488 1.178s.176.866.488 1.178.736.488 1.178.488.866-.176 1.178-.488l7.144-7.16 7.16 7.16c.312.312.736.488 1.178.488a1.67 1.67 0 0 0 1.178-.488c.312-.312.488-.736.488-1.178s-.176-.866-.488-1.178l-7.152-7.177z" class="B"/><g filter="url(#B)"><rect x="97" y="228" width="159" height="25" rx="5" fill="#774d99"/></g><path d="M115.778 235.363c-.347-.32-1.752-1.339-4.885-1.353 0 0-3.694-.222-5.493 1.43-1.001 1-1.353 2.469-1.392 4.287s-.084 5.224 3.199 6.149h.003l-.003 1.41s-.022.572.356.687c.454.142.722-.293 1.156-.76l.815-.922c2.247.189 3.973-.243 4.169-.306.454-.148 3.021-.476 3.437-3.882.432-3.516-.208-5.736-1.362-6.74zm.381 6.483c-.353 2.843-2.434 3.023-2.817 3.147-.164.051-1.681.429-3.587.306l-1.864 2.16c-.145.145-.304.131-.301-.156l.011-2.343c-2.783-.771-2.619-3.672-2.589-5.189s.317-2.762 1.165-3.598c1.522-1.381 4.658-1.176 4.658-1.176 2.65.011 3.918.809 4.214 1.077.976.837 1.473 2.838 1.11 5.772zm-3.801-2.209a.18.18 0 0 1-.352.016c-.031-.602-.312-.894-.892-.927a.18.18 0 0 1 .019-.353c.763.041 1.187.479 1.225 1.264zm.555.308c.028-1.159-.697-2.066-2.072-2.168a.18.18 0 0 1 .024-.352c1.586.115 2.431 1.205 2.401 2.529-.003.235-.358.224-.353-.009zm1.285.367a.18.18 0 0 1-.352.003c-.017-2.229-1.501-3.443-3.303-3.456-.233-.003-.233-.353 0-.353 2.015.014 3.636 1.405 3.655 3.806zm-.309 2.682v.005c-.295.52-.847 1.094-1.416.911l-.005-.008c-.577-.162-1.936-.862-2.795-1.545-.443-.35-.847-.763-1.159-1.159a8.93 8.93 0 0 1-.842-1.274c-.582-1.053-.711-1.523-.711-1.523-.183-.569.388-1.121.911-1.416h.005c.252-.132.492-.088.654.106l.483.604c.137.186.32.484.416.651.167.298.063.602-.101.727l-.328.263c-.167.134-.145.383-.145.383s.487 1.84 2.305 2.304c0 0 .249.022.382-.145l.263-.328c.126-.164.429-.268.727-.101a7.08 7.08 0 0 1 1.252.9c.192.156.236.393.104.645zm14.526-6.721l2.591 7.346h.102l2.591-7.346h1.108L131.602 245h-1.091l-3.204-8.727h1.108zM136.03 245v-6.545h1.006V245h-1.006zm.511-7.636c-.196 0-.365-.067-.507-.201s-.209-.294-.209-.481.07-.348.209-.482.311-.2.507-.2a.7.7 0 0 1 .503.2.64.64 0 0 1 .213.482c0 .187-.071.348-.213.481a.7.7 0 0 1-.503.201zm2.473 7.636v-8.727h1.006v3.221h.085l.307-.434c.133-.179.323-.338.571-.478s.588-.213 1.014-.213c.551 0 1.037.138 1.457.414s.749.666.985 1.172.353 1.102.353 1.789c0 .694-.118 1.294-.353 1.803s-.563.898-.981 1.176-.899.413-1.444.413c-.421 0-.757-.069-1.01-.208s-.448-.303-.584-.482l-.315-.452h-.12V245h-.971zm.988-3.273c0 .495.073.931.218 1.309s.356.669.635.882.619.315 1.022.315c.421 0 .772-.111 1.053-.332s.497-.526.639-.904a3.6 3.6 0 0 0 .218-1.27c0-.46-.071-.875-.213-1.244a1.93 1.93 0 0 0-.635-.882c-.282-.219-.635-.328-1.062-.328-.409 0-.752.103-1.031.311s-.488.491-.63.861-.214.794-.214 1.282zm9.073 3.409c-.631 0-1.175-.139-1.632-.417s-.806-.674-1.053-1.176-.366-1.094-.366-1.765.122-1.261.366-1.772.591-.915 1.032-1.202.96-.435 1.551-.435c.341 0 .677.057 1.01.171a2.49 2.49 0 0 1 .907.554c.272.256.49.588.652 1.005s.243.932.243 1.543v.426h-5.045v-.869h4.022c0-.369-.073-.699-.221-.989a1.67 1.67 0 0 0-.622-.686c-.267-.167-.583-.251-.946-.251-.401 0-.748.099-1.04.298a1.96 1.96 0 0 0-.669.767c-.156.315-.235.653-.235 1.014v.58c0 .494.086.913.256 1.257a1.81 1.81 0 0 0 .72.78c.306.179.664.264 1.07.264.264 0 .503-.037.716-.111a1.51 1.51 0 0 0 .558-.341 1.53 1.53 0 0 0 .362-.571l.972.273a2.15 2.15 0 0 1-.516.869 2.51 2.51 0 0 1-.895.58c-.355.136-.754.204-1.197.204zm4.24-.136v-6.545h.972v.988h.068a1.57 1.57 0 0 1 .647-.788c.313-.202.665-.303 1.057-.303l.277.005.252.012v1.023c-.034-.008-.113-.021-.235-.038s-.245-.03-.379-.03c-.318 0-.602.067-.852.2a1.51 1.51 0 0 0-.588.546c-.145.233-.213.492-.213.788V245h-1.006z" class="B"/><g filter="url(#C)"><rect x="97" y="193" width="159" height="25" rx="5" fill="#0075ff"/></g><path d="M111.016 198c-3.953 0-7.016 2.889-7.016 6.791 0 2.04.839 3.804 2.204 5.022.235.212.187.335.227 1.644a.57.57 0 0 0 .074.261c.046.079.11.147.188.195a.55.55 0 0 0 .257.085.56.56 0 0 0 .268-.045c1.493-.658 1.512-.71 1.766-.641 4.326 1.191 9.016-1.578 9.016-6.521 0-3.902-3.032-6.791-6.984-6.791zm4.212 5.226l-2.061 3.262a1.04 1.04 0 0 1-.3.309 1.05 1.05 0 0 1-.399.163c-.143.027-.29.023-.431-.01s-.275-.095-.391-.182l-1.64-1.227a.42.42 0 0 0-.254-.084c-.091 0-.18.029-.254.084l-2.212 1.678c-.295.224-.682-.13-.483-.442l2.061-3.263c.078-.122.18-.228.3-.309s.257-.137.399-.163.29-.023.432.01a1.06 1.06 0 0 1 .391.182l1.638 1.227c.074.055.163.085.254.085a.42.42 0 0 0 .254-.085l2.214-1.676c.294-.225.681.128.482.441zm12.829-2.953h1.261l2.966 7.244h.102l2.966-7.244h1.262V209h-.989v-6.631h-.085L132.812 209h-.954l-2.727-6.631h-.086V209h-.988v-8.727zm13.284 8.863c-.631 0-1.175-.139-1.633-.417s-.805-.674-1.052-1.176-.367-1.094-.367-1.765.123-1.261.367-1.772.591-.915 1.031-1.202.96-.435 1.551-.435a3.09 3.09 0 0 1 1.01.171c.333.113.635.298.908.554s.49.588.652 1.005.243.932.243 1.543v.426h-5.046v-.869h4.023c0-.369-.074-.699-.222-.989a1.69 1.69 0 0 0-.622-.686c-.27-.168-.582-.251-.946-.251-.4 0-.747.099-1.039.298a1.97 1.97 0 0 0-.67.767c-.156.315-.234.653-.234 1.014v.58c0 .494.085.913.256 1.257a1.84 1.84 0 0 0 .72.78c.307.176.663.264 1.07.264.264 0 .502-.037.715-.111a1.54 1.54 0 0 0 .559-.341c.156-.153.277-.344.362-.571l.972.273a2.17 2.17 0 0 1-.516.869 2.52 2.52 0 0 1-.895.58c-.355.136-.754.204-1.197.204zm8.876-5.216l-.903.256a1.69 1.69 0 0 0-.252-.439c-.108-.145-.256-.264-.443-.358s-.428-.14-.72-.14c-.401 0-.735.092-1.002.277s-.396.413-.396.694c0 .25.091.448.273.593s.466.265.852.362l.972.238c.585.142 1.021.36 1.308.652s.43.664.43 1.121c0 .375-.108.71-.324 1.006s-.511.528-.894.699-.83.255-1.339.255c-.667 0-1.22-.145-1.657-.434s-.715-.713-.831-1.27l.954-.239c.091.352.263.617.516.793s.589.264 1.001.264c.469 0 .841-.099 1.117-.298s.418-.443.418-.725c0-.227-.08-.417-.239-.571s-.404-.272-.733-.349l-1.091-.256c-.599-.142-1.04-.362-1.321-.66s-.418-.678-.418-1.13a1.62 1.62 0 0 1 .311-.98c.211-.284.496-.507.857-.669s.776-.243 1.236-.243c.648 0 1.156.142 1.525.426a2.3 2.3 0 0 1 .793 1.125zm6.27 0l-.904.256c-.057-.15-.141-.297-.251-.439a1.22 1.22 0 0 0-.444-.358c-.187-.093-.427-.14-.72-.14-.4 0-.734.092-1.001.277s-.396.413-.396.694a.72.72 0 0 0 .272.593c.182.144.466.265.853.362l.971.238c.585.142 1.021.36 1.308.652s.431.664.431 1.121c0 .375-.108.71-.324 1.006s-.511.528-.895.699-.829.255-1.338.255c-.668 0-1.22-.145-1.658-.434s-.714-.713-.831-1.27l.955-.239c.091.352.263.617.516.793s.589.264 1.001.264c.469 0 .841-.099 1.116-.298s.418-.443.418-.725a.76.76 0 0 0-.239-.571c-.159-.156-.403-.272-.733-.349l-1.09-.256c-.6-.142-1.04-.362-1.321-.66s-.418-.678-.418-1.13a1.62 1.62 0 0 1 .311-.98c.21-.284.496-.507.857-.669s.775-.243 1.235-.243c.648 0 1.157.142 1.526.426a2.31 2.31 0 0 1 .793 1.125zm4.377 5.216c-.631 0-1.175-.139-1.632-.417s-.806-.674-1.053-1.176-.366-1.094-.366-1.765.122-1.261.366-1.772.591-.915 1.032-1.202.96-.435 1.551-.435c.341 0 .677.057 1.01.171a2.49 2.49 0 0 1 .907.554c.272.256.49.588.652 1.005s.243.932.243 1.543v.426h-5.045v-.869h4.022c0-.369-.073-.699-.221-.989a1.67 1.67 0 0 0-.622-.686c-.267-.167-.583-.251-.946-.251-.401 0-.747.099-1.04.298a1.96 1.96 0 0 0-.669.767c-.156.315-.234.653-.234 1.014v.58c0 .494.085.913.255 1.257a1.81 1.81 0 0 0 .72.78c.306.179.664.264 1.07.264.264 0 .503-.037.716-.111a1.51 1.51 0 0 0 .558-.341 1.53 1.53 0 0 0 .362-.571l.972.273a2.15 2.15 0 0 1-.516.869c-.241.247-.539.441-.895.58s-.754.204-1.197.204zm5.246-4.074V209h-1.006v-6.545h.972v1.022h.085c.153-.332.386-.599.699-.801s.716-.307 1.21-.307c.443 0 .831.091 1.163.273a1.86 1.86 0 0 1 .776.818c.185.366.277.824.277 1.381V209h-1.006v-4.091c0-.514-.133-.915-.4-1.202s-.634-.434-1.1-.434c-.321 0-.608.069-.861.209a1.48 1.48 0 0 0-.592.609c-.145.267-.217.591-.217.971zm8.656 6.529c-.486 0-.904-.063-1.253-.188a2.73 2.73 0 0 1-.874-.485 2.64 2.64 0 0 1-.55-.64l.802-.562.345.409c.139.156.329.291.571.405s.564.175.959.175c.528 0 .964-.128 1.308-.384s.515-.656.515-1.202v-1.329h-.085a5.56 5.56 0 0 1-.315.443c-.134.173-.327.328-.58.464s-.588.201-1.014.201a2.73 2.73 0 0 1-1.423-.375c-.418-.25-.749-.614-.993-1.091s-.362-1.057-.362-1.739c0-.67.118-1.254.353-1.751s.564-.887.985-1.159.906-.414 1.457-.414c.426 0 .764.071 1.014.213s.446.299.58.478l.315.434h.103v-1.039h.971v6.733c0 .562-.128 1.019-.383 1.372a2.18 2.18 0 0 1-1.023.779c-.426.168-.901.252-1.423.252zm-.034-3.597c.403 0 .744-.092 1.022-.277s.49-.45.635-.797.218-.761.218-1.244c0-.471-.071-.888-.214-1.248a1.87 1.87 0 0 0-.63-.848c-.279-.205-.622-.307-1.031-.307-.427 0-.782.108-1.066.324s-.493.505-.635.869-.209.767-.209 1.21c0 .455.071.857.214 1.206s.357.619.639.818.636.294 1.057.294zm7.448 1.142c-.63 0-1.174-.139-1.632-.417s-.805-.674-1.052-1.176-.367-1.094-.367-1.765.122-1.261.367-1.772.591-.915 1.031-1.202.96-.435 1.551-.435a3.09 3.09 0 0 1 1.01.171c.332.113.635.298.908.554s.49.588.652 1.005.243.932.243 1.543v.426h-5.046v-.869h4.023c0-.369-.074-.699-.222-.989a1.67 1.67 0 0 0-.622-.686c-.267-.167-.582-.251-.946-.251-.4 0-.747.099-1.04.298s-.512.452-.669.767a2.24 2.24 0 0 0-.234 1.014v.58c0 .494.085.913.256 1.257a1.84 1.84 0 0 0 .72.78 2.11 2.11 0 0 0 1.069.264 2.17 2.17 0 0 0 .716-.111 1.54 1.54 0 0 0 .559-.341c.156-.153.277-.344.362-.571l.971.273c-.102.329-.274.619-.515.869a2.52 2.52 0 0 1-.895.58c-.355.136-.754.204-1.198.204zm4.24-.136v-6.545h.972v.988h.068c.12-.324.335-.586.648-.788s.665-.303 1.057-.303l.277.005.251.012v1.023a3.31 3.31 0 0 0-.234-.038 2.3 2.3 0 0 0-.379-.03c-.319 0-.603.067-.853.2a1.51 1.51 0 0 0-.588.546c-.145.233-.213.492-.213.788V209h-1.006z" class="B"/><g filter="url(#D)"><rect x="97" y="158" width="159" height="25" rx="5" fill="#4dc247"/></g><path d="M128.642 175l-2.386-8.727h1.074l1.823 7.108h.086l1.858-7.108h1.193l1.858 7.108h.085l1.824-7.108h1.074L134.744 175h-1.091l-1.926-6.955h-.068L129.733 175h-1.091zm10.675-3.938V175h-1.006v-8.727h1.006v3.204h.085a1.85 1.85 0 0 1 .69-.805c.31-.202.722-.303 1.236-.303.446 0 .837.09 1.172.269a1.82 1.82 0 0 1 .78.814c.185.367.281.826.281 1.389V175h-1.006v-4.091c0-.52-.135-.922-.404-1.206s-.638-.43-1.113-.43c-.329 0-.625.069-.886.209a1.52 1.52 0 0 0-.614.609c-.151.267-.221.591-.221.971zm8.01 4.091a2.66 2.66 0 0 1-1.129-.234c-.338-.159-.607-.388-.806-.686s-.298-.665-.298-1.091c0-.375.074-.679.222-.912a1.56 1.56 0 0 1 .592-.554 3.12 3.12 0 0 1 .818-.298l.908-.162.967-.115c.25-.029.432-.075.546-.141s.174-.179.174-.341v-.034c0-.42-.115-.747-.345-.98s-.572-.349-1.035-.349c-.48 0-.857.105-1.13.315s-.464.435-.575.673l-.954-.341c.17-.397.397-.707.681-.929a2.57 2.57 0 0 1 .938-.468 3.89 3.89 0 0 1 1.006-.137 4 4 0 0 1 .724.077 2.3 2.3 0 0 1 .797.303c.258.153.473.385.643.694s.256.725.256 1.245V175h-1.006v-.886h-.051a1.77 1.77 0 0 1-.341.456c-.159.162-.37.299-.635.413s-.586.17-.967.17zm.153-.903c.398 0 .733-.078 1.006-.234a1.61 1.61 0 0 0 .622-.605c.139-.247.213-.508.213-.78v-.921c-.042.051-.136.098-.281.141a4.65 4.65 0 0 1-.494.106l-.541.077-.422.051c-.262.034-.506.09-.733.166s-.406.186-.546.337-.204.349-.204.605c0 .35.129.614.388.793s.592.264.992.264zm7.529-5.795v.852h-3.392v-.852h3.392zm-2.403-1.569h1.006v6.239c0 .284.041.497.123.639s.193.233.324.281.274.069.422.069c.111 0 .202-.006.273-.017l.17-.035.205.904c-.069.025-.164.051-.286.077a2.13 2.13 0 0 1-.464.042c-.285 0-.563-.061-.836-.183s-.494-.308-.673-.558-.264-.566-.264-.946v-6.512zm8.435 3.034l-.903.256a1.69 1.69 0 0 0-.252-.439c-.108-.145-.255-.264-.443-.358s-.427-.14-.72-.14c-.401 0-.734.092-1.001.277s-.397.413-.397.694c0 .25.091.448.273.593s.466.265.852.362l.972.238c.585.142 1.021.36 1.308.652s.431.664.431 1.121c0 .375-.108.71-.324 1.006a2.17 2.17 0 0 1-.895.699c-.383.171-.83.255-1.338.255-.668 0-1.22-.145-1.658-.434s-.714-.713-.831-1.27l.955-.239c.091.352.262.617.515.793s.59.264 1.002.264c.468 0 .841-.099 1.116-.298s.418-.443.418-.725c0-.227-.08-.417-.239-.571s-.403-.272-.733-.349l-1.091-.256c-.599-.142-1.04-.362-1.321-.66s-.417-.678-.417-1.13c0-.369.103-.696.311-.98a2.1 2.1 0 0 1 .856-.669c.361-.162.776-.243 1.236-.243.648 0 1.156.142 1.526.426a2.31 2.31 0 0 1 .792 1.125zm2.128 5.08h-1.108l3.204-8.727h1.091l3.205 8.727h-1.108l-2.608-7.347h-.068L163.169 175zm.409-3.409h4.466v.937h-4.466v-.937zm7.206 5.864v-9h.971v1.039h.12l.306-.434c.134-.179.324-.338.571-.478s.589-.213 1.015-.213c.551 0 1.037.138 1.457.414s.749.666.984 1.172.354 1.102.354 1.789c0 .694-.118 1.294-.354 1.803s-.562.898-.98 1.176-.899.413-1.444.413c-.421 0-.757-.069-1.01-.208s-.448-.303-.584-.482l-.315-.452h-.086v3.461h-1.005zm.988-5.728c0 .495.073.931.218 1.309s.356.669.635.882.619.315 1.022.315c.421 0 .772-.111 1.053-.332s.497-.526.639-.904a3.6 3.6 0 0 0 .217-1.27c0-.46-.071-.875-.213-1.244s-.35-.666-.635-.882-.634-.328-1.061-.328c-.409 0-.752.103-1.031.311s-.489.491-.631.861-.213.794-.213 1.282zm6.324 5.728v-9h.972v1.039h.119l.307-.434c.133-.179.324-.338.571-.478s.588-.213 1.014-.213c.551 0 1.037.138 1.458.414s.748.666.984 1.172.354 1.102.354 1.789c0 .694-.118 1.294-.354 1.803s-.563.898-.98 1.176-.899.413-1.445.413c-.42 0-.757-.069-1.01-.208s-.447-.303-.584-.482l-.315-.452h-.085v3.461h-1.006zm.989-5.728c0 .495.072.931.217 1.309s.357.669.635.882.619.315 1.023.315c.42 0 .771-.111 1.052-.332a2.03 2.03 0 0 0 .64-.904c.145-.381.217-.804.217-1.27 0-.46-.071-.875-.213-1.244s-.351-.666-.635-.882-.635-.328-1.061-.328c-.409 0-.753.103-1.031.311s-.489.491-.631.861-.213.794-.213 1.282zm-63.182-5.693c-1.309-1.312-3.053-2.034-4.906-2.034a6.95 6.95 0 0 0-6.938 6.938c0 1.221.319 2.415.925 3.468L104 178l3.678-.966a6.91 6.91 0 0 0 3.316.844h.003c3.822 0 7.003-3.112 7.003-6.937 0-1.853-.788-3.594-2.097-4.907zm-4.906 10.675a5.76 5.76 0 0 1-2.938-.803l-.209-.125-2.181.572.581-2.128-.138-.219c-.578-.918-.881-1.978-.881-3.068 0-3.179 2.588-5.766 5.769-5.766 1.541 0 2.988.6 4.075 1.69s1.756 2.538 1.753 4.079c0 3.181-2.653 5.768-5.831 5.768zm3.162-4.318l-1.184-.563c-.159-.059-.275-.087-.391.088s-.447.562-.55.681-.203.131-.375.044c-1.018-.51-1.687-.91-2.359-2.063-.178-.306.178-.284.509-.947.057-.115.028-.215-.015-.303s-.391-.94-.535-1.287c-.14-.338-.284-.291-.39-.297l-.332-.006a.64.64 0 0 0-.462.215c-.159.175-.606.594-.606 1.447s.622 1.678.706 1.794 1.222 1.865 2.962 2.618c1.101.476 1.532.516 2.082.435.334-.05 1.025-.419 1.168-.825s.144-.753.101-.825c-.041-.078-.157-.122-.329-.206z" class="B"/><g filter="url(#E)"><rect x="97" y="125" width="159" height="25" rx="5" fill="#000"/></g><path d="M126.58 134.21v-.937h6.545v.937h-2.744V142h-1.057v-7.79h-2.744zm8.773 7.79l-1.995-6.545h1.057l1.415 5.011h.068l1.398-5.011h1.074l1.38 4.994h.069l1.414-4.994h1.057L140.296 142h-.989l-1.432-5.028h-.102L136.341 142h-.988zm8.267 0v-6.545h1.005V142h-1.005zm.511-7.636c-.196 0-.365-.067-.507-.201s-.209-.294-.209-.481.07-.348.209-.482.311-.2.507-.2a.7.7 0 0 1 .503.2.64.64 0 0 1 .213.482c0 .187-.071.348-.213.481a.7.7 0 0 1-.503.201zm5.183 1.091v.852h-3.392v-.852h3.392zm-2.403-1.569h1.005v6.239c0 .284.041.497.124.639s.193.233.324.281.274.069.422.069a1.83 1.83 0 0 0 .272-.017l.171-.035.204.904c-.068.025-.163.051-.285.077s-.277.042-.465.042c-.284 0-.562-.061-.835-.183s-.494-.308-.673-.558-.264-.566-.264-.946v-6.512zm6.762 1.569v.852h-3.392v-.852h3.392zm-2.403-1.569h1.006v6.239c0 .284.041.497.123.639s.193.233.324.281a1.29 1.29 0 0 0 .422.069c.111 0 .202-.006.273-.017l.17-.035.205.904c-.069.025-.164.051-.286.077a2.13 2.13 0 0 1-.464.042 2.03 2.03 0 0 1-.836-.183c-.269-.122-.494-.308-.673-.558s-.264-.566-.264-.946v-6.512zm6.59 8.25c-.631 0-1.175-.139-1.632-.417a2.81 2.81 0 0 1-1.053-1.176c-.244-.506-.366-1.094-.366-1.765s.122-1.261.366-1.772a2.89 2.89 0 0 1 1.032-1.202c.443-.29.96-.435 1.551-.435.341 0 .677.057 1.01.171s.635.298.907.554.49.588.652 1.005.243.932.243 1.543v.426h-5.045v-.869h4.023c0-.369-.074-.699-.222-.989a1.67 1.67 0 0 0-.622-.686c-.267-.167-.583-.251-.946-.251-.401 0-.747.099-1.04.298a1.96 1.96 0 0 0-.669.767c-.156.315-.234.653-.234 1.014v.58c0 .494.085.913.255 1.257s.414.601.72.78.664.264 1.07.264c.264 0 .503-.037.716-.111s.402-.19.558-.341.277-.344.362-.571l.972.273a2.15 2.15 0 0 1-.516.869c-.241.247-.539.441-.894.58s-.755.204-1.198.204zm4.24-.136v-6.545h.972v.988h.068c.119-.324.335-.586.648-.788a1.9 1.9 0 0 1 1.056-.303l.277.005.252.012v1.023a3.27 3.27 0 0 0-.235-.038c-.119-.02-.245-.03-.379-.03-.318 0-.602.067-.852.2s-.443.313-.588.546-.213.492-.213.788V142H162.1z" class="B"/><path d="M112.094 136.928l5.063-5.928h-1.2l-4.395 5.147L108.05 131H104l5.31 7.784L104 145h1.2l4.642-5.436 3.709 5.436h4.05l-5.507-8.072zm-1.643 1.924l-.538-.775-4.281-6.167h1.843l3.454 4.977.538.775 4.491 6.47h-1.843l-3.664-5.28z" fill="#f8f8f8"/><defs><filter id="A" x="0" y="0" width="282" height="342" filterUnits="userSpaceOnUse" class="C"><feFlood result="A" class="D"/><feColorMatrix in="SourceAlpha" values="0 0 0 0 0 0 0 0 0 0 0 0 0 0 0 0 0 0 127 0" result="B"/><feOffset/><feGaussianBlur stdDeviation="5"/><feComposite in2="B" operator="out"/><feColorMatrix values="0 0 0 0 0.309804 0 0 0 0 0.27451 0 0 0 0 0.898039 0 0 0 0.25 0"/><feBlend in2="A"/><feBlend in="SourceGraphic"/></filter><filter id="B" x="87" y="218" width="179" height="45" filterUnits="userSpaceOnUse" class="C"><feFlood result="A" class="D"/><feColorMatrix in="SourceAlpha" values="0 0 0 0 0 0 0 0 0 0 0 0 0 0 0 0 0 0 127 0" result="B"/><feOffset/><feGaussianBlur stdDeviation="5"/><feComposite in2="B" operator="out"/><feColorMatrix values="0 0 0 0 0 0 0 0 0 0 0 0 0 0 0 0 0 0 0.1 0"/><feBlend in2="A"/><feBlend in="SourceGraphic"/></filter><filter id="C" x="87" y="183" width="179" height="45" filterUnits="userSpaceOnUse" class="C"><feFlood result="A" class="D"/><feColorMatrix in="SourceAlpha" values="0 0 0 0 0 0 0 0 0 0 0 0 0 0 0 0 0 0 127 0" result="B"/><feOffset/><feGaussianBlur stdDeviation="5"/><feComposite in2="B" operator="out"/><feColorMatrix values="0 0 0 0 0 0 0 0 0 0 0 0 0 0 0 0 0 0 0.1 0"/><feBlend in2="A"/><feBlend in="SourceGraphic"/></filter><filter id="D" x="87" y="148" width="179" height="45" filterUnits="userSpaceOnUse" class="C"><feFlood result="A" class="D"/><feColorMatrix in="SourceAlpha" values="0 0 0 0 0 0 0 0 0 0 0 0 0 0 0 0 0 0 127 0" result="B"/><feOffset/><feGaussianBlur stdDeviation="5"/><feComposite in2="B" operator="out"/><feColorMatrix values="0 0 0 0 0 0 0 0 0 0 0 0 0 0 0 0 0 0 0.1 0"/><feBlend in2="A"/><feBlend in="SourceGraphic"/></filter><filter id="E" x="87" y="115" width="179" height="45" filterUnits="userSpaceOnUse" class="C"><feFlood result="A" class="D"/><feColorMatrix in="SourceAlpha" values="0 0 0 0 0 0 0 0 0 0 0 0 0 0 0 0 0 0 127 0" result="B"/><feOffset/><feGaussianBlur stdDeviation="5"/><feComposite in2="B" operator="out"/><feColorMatrix values="0 0 0 0 0 0 0 0 0 0 0 0 0 0 0 0 0 0 0.1 0"/><feBlend in2="A"/><feBlend in="SourceGraphic"/></filter><linearGradient id="F" x1="11" y1="11" x2="271" y2="331" gradientUnits="userSpaceOnUse"><stop stop-color="#fff" stop-opacity="0"/><stop offset="1" stop-color="#4f46e5"/></linearGradient></defs></svg>