<svg xmlns="http://www.w3.org/2000/svg" width="280" height="340" fill="none"><style><![CDATA[.B{color-interpolation-filters:sRGB}.C{flood-opacity:0}.D{fill:#ebebeb}.E{fill:#d9d9d9}]]></style><g filter="url(#A)"><rect x="10" y="10" width="260" height="320" rx="10" fill="#fff"/></g><circle cx="230" cy="289" r="25" fill="#9e9e9e"/><g filter="url(#B)" class="D"><rect x="96" y="227" width="159" height="25" rx="5"/></g><g class="E"><rect x="125" y="232" width="110" height="16" rx="4"/><circle cx="110" cy="240" r="8"/></g><g filter="url(#C)" class="D"><rect x="96" y="192" width="159" height="25" rx="5"/></g><g class="E"><rect x="125" y="197" width="110" height="16" rx="4"/><circle cx="110" cy="205" r="8"/></g><g filter="url(#D)" class="D"><rect x="96" y="157" width="159" height="25" rx="5"/></g><g class="E"><rect x="125" y="162" width="110" height="16" rx="4"/><circle cx="110" cy="170" r="8"/></g><g filter="url(#E)" class="D"><rect x="96" y="124" width="159" height="25" rx="5"/></g><g class="E"><rect x="125" y="129" width="110" height="16" rx="4"/><circle cx="110" cy="137" r="8"/></g><defs><filter id="A" x="0" y="0" width="280" height="340" filterUnits="userSpaceOnUse" class="B"><feFlood result="A" class="C"/><feColorMatrix in="SourceAlpha" values="0 0 0 0 0 0 0 0 0 0 0 0 0 0 0 0 0 0 127 0" result="B"/><feOffset/><feGaussianBlur stdDeviation="5"/><feComposite in2="B" operator="out"/><feColorMatrix values="0 0 0 0 0 0 0 0 0 0 0 0 0 0 0 0 0 0 0.25 0"/><feBlend in2="A"/><feBlend in="SourceGraphic"/></filter><filter id="B" x="86" y="217" width="179" height="45" filterUnits="userSpaceOnUse" class="B"><feFlood result="A" class="C"/><feColorMatrix in="SourceAlpha" values="0 0 0 0 0 0 0 0 0 0 0 0 0 0 0 0 0 0 127 0" result="B"/><feOffset/><feGaussianBlur stdDeviation="5"/><feComposite in2="B" operator="out"/><feColorMatrix values="0 0 0 0 0 0 0 0 0 0 0 0 0 0 0 0 0 0 0.1 0"/><feBlend in2="A"/><feBlend in="SourceGraphic"/></filter><filter id="C" x="86" y="182" width="179" height="45" filterUnits="userSpaceOnUse" class="B"><feFlood result="A" class="C"/><feColorMatrix in="SourceAlpha" values="0 0 0 0 0 0 0 0 0 0 0 0 0 0 0 0 0 0 127 0" result="B"/><feOffset/><feGaussianBlur stdDeviation="5"/><feComposite in2="B" operator="out"/><feColorMatrix values="0 0 0 0 0 0 0 0 0 0 0 0 0 0 0 0 0 0 0.1 0"/><feBlend in2="A"/><feBlend in="SourceGraphic"/></filter><filter id="D" x="86" y="147" width="179" height="45" filterUnits="userSpaceOnUse" class="B"><feFlood result="A" class="C"/><feColorMatrix in="SourceAlpha" values="0 0 0 0 0 0 0 0 0 0 0 0 0 0 0 0 0 0 127 0" result="B"/><feOffset/><feGaussianBlur stdDeviation="5"/><feComposite in2="B" operator="out"/><feColorMatrix values="0 0 0 0 0 0 0 0 0 0 0 0 0 0 0 0 0 0 0.1 0"/><feBlend in2="A"/><feBlend in="SourceGraphic"/></filter><filter id="E" x="86" y="114" width="179" height="45" filterUnits="userSpaceOnUse" class="B"><feFlood result="A" class="C"/><feColorMatrix in="SourceAlpha" values="0 0 0 0 0 0 0 0 0 0 0 0 0 0 0 0 0 0 127 0" result="B"/><feOffset/><feGaussianBlur stdDeviation="5"/><feComposite in2="B" operator="out"/><feColorMatrix values="0 0 0 0 0 0 0 0 0 0 0 0 0 0 0 0 0 0 0.1 0"/><feBlend in2="A"/><feBlend in="SourceGraphic"/></filter></defs></svg>